<svg xmlns="http://www.w3.org/2000/svg" viewBox="0 0 5.03 4.86"><defs><style>.cls-1{fill:#acafbd;}</style></defs><title>beg</title><g id="Layer_2" data-name="Layer 2"><g id="Layer_1-2" data-name="Layer 1"><path class="cls-1" d="M.14,1.26h1V.75A.73.73,0,0,1,1.37.22h0A.73.73,0,0,1,1.9,0H3.13a.76.76,0,0,1,.53.22h0a.78.78,0,0,1,.21.53v.51h1A.14.14,0,0,1,5,1.4V4.72a.14.14,0,0,1-.14.14H.14A.14.14,0,0,1,0,4.72V1.4A.14.14,0,0,1,.14,1.26Zm2.37.9a.47.47,0,0,1,.33.13h0A.48.48,0,0,1,3,2.62v.09H4.75V1.54H.28V2.71H2.06V2.62a.49.49,0,0,1,.13-.33A.46.46,0,0,1,2.51,2.16ZM3,3v.09a.46.46,0,0,1-.13.32.47.47,0,0,1-.33.13.46.46,0,0,1-.32-.13h0a.46.46,0,0,1-.13-.32V3H.28V4.58H4.75V3Zm-.46-.55a.18.18,0,0,0-.12.05.21.21,0,0,0-.05.13v.46a.17.17,0,0,0,.05.12h0a.18.18,0,0,0,.12,0,.19.19,0,0,0,.13,0,.17.17,0,0,0,0-.12V2.62a.17.17,0,0,0,0-.12h0A.19.19,0,0,0,2.51,2.44ZM1.43,1.26H3.6V.75A.49.49,0,0,0,3.47.42h0A.48.48,0,0,0,3.13.28H1.9a.44.44,0,0,0-.33.14h0a.47.47,0,0,0-.13.33Z"/></g></g></svg>