<svg xmlns="http://www.w3.org/2000/svg" viewBox="0 0 5.18 4.73"><defs><style>.cls-1{fill:#acafbd;}</style></defs><title>cloud-1</title><g id="Layer_2" data-name="Layer 2"><g id="Layer_1-2" data-name="Layer 1"><path class="cls-1" d="M1.84,3.8,1,4.69a.21.21,0,0,1-.11,0A.14.14,0,0,1,.7,4.59V3.8H.37a.41.41,0,0,1-.26-.11A.38.38,0,0,1,0,3.43V.37A.36.36,0,0,1,.11.11.36.36,0,0,1,.37,0H4.81a.36.36,0,0,1,.26.11.36.36,0,0,1,.11.26V3.43a.38.38,0,0,1-.11.26.47.47,0,0,1-.25.11h-3ZM1,4.24l.69-.69a.13.13,0,0,1,.1,0h3a.09.09,0,0,0,.07,0s0,0,0-.06v-3a.07.07,0,0,0,0-.06.09.09,0,0,0-.07,0H.38a.09.09,0,0,0-.07,0,.11.11,0,0,0,0,.06v3a.14.14,0,0,0,0,.06.09.09,0,0,0,.07,0H.84A.14.14,0,0,1,1,3.65ZM3,1.9a.23.23,0,0,1-.08.18.23.23,0,0,1-.18.08.27.27,0,0,1-.19-.08h0a.24.24,0,0,1-.07-.18.24.24,0,0,1,.08-.19.23.23,0,0,1,.18-.07.23.23,0,0,1,.18.07h0A.24.24,0,0,1,3,1.9Zm.94,0a.25.25,0,0,1-.08.18.27.27,0,0,1-.19.08.25.25,0,0,1-.18-.08.23.23,0,0,1-.08-.18.27.27,0,0,1,.08-.19h0a.27.27,0,0,1,.17-.06.26.26,0,0,1,.19.07h0A.29.29,0,0,1,3.91,1.9ZM2,1.9A.25.25,0,0,1,2,2.08a.26.26,0,0,1-.19.08.25.25,0,0,1-.18-.08.23.23,0,0,1-.08-.18.27.27,0,0,1,.08-.19.24.24,0,0,1,.18-.07A.25.25,0,0,1,2,1.71H2A.29.29,0,0,1,2,1.9Z"/></g></g></svg>