<svg xmlns="http://www.w3.org/2000/svg" viewBox="0 0 4.72 4.72"><defs><style>.cls-1{fill:#acafbd;}</style></defs><title>gear</title><g id="Layer_2" data-name="Layer 2"><g id="Layer_1-2" data-name="Layer 1"><path class="cls-1" d="M3.93,1.54l.37-.37A.14.14,0,0,0,4.3,1L3.76.42a.14.14,0,0,0-.21,0L3.19.79h0L3,.71l-.17,0h0V.14A.14.14,0,0,0,2.65,0H2.07a.14.14,0,0,0-.14.14V.66h0l-.17,0L1.55.78h0L1.17.42A.14.14,0,0,0,1,.42L.42,1a.15.15,0,0,0,0,.21l.37.37h0a1.46,1.46,0,0,0-.07.19c0,.05,0,.11,0,.17v0H.14A.14.14,0,0,0,0,2.07v.58a.14.14,0,0,0,.14.14H.66v0c0,.06,0,.11,0,.16h0a1.07,1.07,0,0,0,.07.19v0l-.37.36a.15.15,0,0,0,0,.21L1,4.3a.14.14,0,0,0,.21,0l.37-.37h0L1.74,4l.17,0h0v.52a.14.14,0,0,0,.14.14h.58a.14.14,0,0,0,.14-.14V4.06h0L3,4l.19-.07h0l.36.37a.14.14,0,0,0,.21,0l.54-.54a.15.15,0,0,0,0-.21l-.37-.36v0A1.07,1.07,0,0,0,4,3s0-.11,0-.17v0h.52a.14.14,0,0,0,.14-.14V2.07a.14.14,0,0,0-.14-.14H4.06v0a.75.75,0,0,0,0-.16H4a1.46,1.46,0,0,0-.07-.19ZM2.09,3.81l-.26-.07a1.73,1.73,0,0,1-.24-.1H1.45l0,0L1.07,4,.73,3.65l.36-.36V3.14A.87.87,0,0,1,1,2.89H1c0-.09,0-.17-.07-.27a.13.13,0,0,0-.13-.11H.29V2.22H.77A.14.14,0,0,0,.91,2.1c0-.1,0-.19.08-.27a1,1,0,0,1,.09-.24h0s0,0,0,0v0a.29.29,0,0,0,0-.09h0L.73,1.07,1.07.73l.35.35,0,0h.07l.06,0A.64.64,0,0,1,1.83,1L2.09.91A.14.14,0,0,0,2.22.77V.29h.29V.77a.13.13,0,0,0,.11.14L2.9,1a1.09,1.09,0,0,1,.23.09l0,0h.1l0,0L3.65.73,4,1.07l-.36.36,0,0v.08l0,.05a1,1,0,0,1,.09.24h0c0,.09,0,.18.07.27A.14.14,0,0,0,4,2.22h.48v.29H4a.13.13,0,0,0-.14.11,2.29,2.29,0,0,1-.08.28.92.92,0,0,1-.09.23l0,0v.13l0,0L4,3.65,3.65,4,3.3,3.65l0,0H3.16l0,0-.24.1-.27.07A.14.14,0,0,0,2.51,4v.48H2.22V4A.14.14,0,0,0,2.09,3.81ZM3.37,2.36a1,1,0,0,0-.29-.72h0a1,1,0,0,0-.71-.29,1,1,0,0,0-.72.3h0a1,1,0,0,0-.29.71,1,1,0,0,0,.3.72h0a1,1,0,0,0,.71.29,1,1,0,0,0,1-1Zm-.5-.51a.71.71,0,0,1,.21.51.72.72,0,0,1-.72.72.74.74,0,0,1-.51-.2h0a.69.69,0,0,1-.21-.51.71.71,0,0,1,.21-.51h0a.69.69,0,0,1,.51-.21.71.71,0,0,1,.51.21Z"/></g></g></svg>