<svg xmlns="http://www.w3.org/2000/svg" viewBox="0 0 5 5"><defs><style>.cls-1{fill:#acafbd;}</style></defs><title>hammer</title><g id="Layer_2" data-name="Layer 2"><g id="Layer_1-2" data-name="Layer 1"><path class="cls-1" d="M4.65,5,5,4.65a.17.17,0,0,0,0-.21L3.8,3.28a.17.17,0,0,0-.21,0l0,.05-.8-.8.45-.45a.22.22,0,0,0,.16,0,.27.27,0,0,0,.2-.08l.22-.22a.27.27,0,0,0,0-.4L2.42.08A.27.27,0,0,0,2.23,0h0A.27.27,0,0,0,2,.08L1.8.31A.27.27,0,0,0,1.72.5v0a.25.25,0,0,0,.05.15L.67,1.77a.33.33,0,0,0-.16-.05h0a.27.27,0,0,0-.19.08L.08,2a.28.28,0,0,0-.08.2v0a.3.3,0,0,0,.08.17L1.43,3.77a.27.27,0,0,0,.4,0l.22-.22a.27.27,0,0,0,.08-.2.22.22,0,0,0,0-.16l.46-.46.8.8,0,.06a.13.13,0,0,0,0,.2L4.45,5A.15.15,0,0,0,4.65,5ZM.87,2l1,1L3,1.89l-1-1Zm.91,1.3L.58,2.07h0L.51,2l-.23.23L1.63,3.57l.22-.22-.06-.07h0ZM2.08.58l1.2,1.2h0l.07.07.22-.22L2.23.28,2,.5l.07.07h0Zm2.58,4-.11.12-1-1,.12-.11Z"/></g></g></svg>