<svg xmlns="http://www.w3.org/2000/svg" viewBox="0 0 6.29 7.75"><defs><style>.cls-1{fill:#acafbd;}</style></defs><title>help</title><g id="Layer_2" data-name="Layer 2"><g id="Layer_1-2" data-name="Layer 1"><path class="cls-1" d="M3.14,7H2.91a.23.23,0,1,0,0,.45h.47a.22.22,0,0,0,.22-.22A.22.22,0,0,0,3.38,7ZM6.29,2.65V5A2.36,2.36,0,0,1,3.84,7.39a.47.47,0,0,1-.46.36H2.91a.49.49,0,0,1,0-1h.47a.48.48,0,0,1,.46.35A2.11,2.11,0,0,0,6,5.12a.75.75,0,0,1-.48.18H5A.31.31,0,0,1,4.67,5V3A.31.31,0,0,1,5,2.64h.57A.75.75,0,0,1,6,2.82V2.65A2.14,2.14,0,0,0,4.11.52a.38.38,0,0,1-.33.21H2.51A.37.37,0,0,1,2.18.52,2.13,2.13,0,0,0,.26,2.65v.17a.75.75,0,0,1,.48-.18h.57A.31.31,0,0,1,1.62,3V5a.31.31,0,0,1-.31.31H.74A.74.74,0,0,1,0,4.56V2.65A2.4,2.4,0,0,1,2.16.26.36.36,0,0,1,2.51,0H3.78a.38.38,0,0,1,.35.26A2.4,2.4,0,0,1,6.29,2.65ZM6,4.56H6V3.38a.49.49,0,0,0-.48-.48H5.29V5h.26A.49.49,0,0,0,6,4.56ZM5,5H5V2.9H5A.05.05,0,0,0,4.93,3V5A.05.05,0,0,0,5,5ZM3.88.37h0a.1.1,0,0,0-.1-.11H2.51A.11.11,0,0,0,2.4.37a.11.11,0,0,0,.11.1H3.78A.1.1,0,0,0,3.88.37ZM1.36,5h0V3a.05.05,0,0,0-.05-.05H1.26V5h.05A.05.05,0,0,0,1.36,5ZM1,5H1V2.9H.74a.48.48,0,0,0-.48.48V4.56A.48.48,0,0,0,.74,5Z"/></g></g></svg>