<svg xmlns="http://www.w3.org/2000/svg" viewBox="0 0 4.25 6.33"><defs><style>.cls-1{fill:#acafbd;}</style></defs><title>location</title><g id="Layer_2" data-name="Layer 2"><g id="Layer_1-2" data-name="Layer 1"><path class="cls-1" d="M2.13,6c.25-.4.66-1.07,1-1.76A6.1,6.1,0,0,0,4,2.13a1.83,1.83,0,0,0-.14-.71,1.86,1.86,0,0,0-.4-.6,1.91,1.91,0,0,0-.6-.4,1.82,1.82,0,0,0-.7-.14,1.87,1.87,0,0,0-.71.14,2,2,0,0,0-.6.4,2,2,0,0,0-.4.6,1.83,1.83,0,0,0-.14.71,6.1,6.1,0,0,0,.81,2.1C1.46,4.92,1.87,5.59,2.13,6Zm1-3.86A.94.94,0,0,1,3,2.5a.77.77,0,0,1-.22.31A.87.87,0,0,1,2.5,3a.94.94,0,0,1-.37.07A1,1,0,0,1,1.75,3a.84.84,0,0,1-.31-.22,1.16,1.16,0,0,1-.22-.31,1.16,1.16,0,0,1-.07-.37,1.17,1.17,0,0,1,.07-.38,1.4,1.4,0,0,1,.22-.32,1.13,1.13,0,0,1,.31-.21,1.22,1.22,0,0,1,.38-.07,1.16,1.16,0,0,1,.37.07,1.2,1.2,0,0,1,.31.21A1,1,0,0,1,3,1.75,1,1,0,0,1,3.1,2.13Zm-.33.26a.75.75,0,0,0,0-.26.76.76,0,0,0,0-.27.86.86,0,0,0-.15-.22.65.65,0,0,0-.23-.15.58.58,0,0,0-.26-.06.6.6,0,0,0-.27.06.54.54,0,0,0-.22.15.54.54,0,0,0-.15.22.6.6,0,0,0-.06.27.58.58,0,0,0,.06.26.54.54,0,0,0,.15.22.54.54,0,0,0,.22.15.6.6,0,0,0,.27.06.58.58,0,0,0,.26-.06.54.54,0,0,0,.22-.15A.69.69,0,0,0,2.77,2.39Zm.64,2C3,5.2,2.47,6,2.25,6.33H2C1.79,6,1.29,5.2.84,4.36A6.14,6.14,0,0,1,0,2.13a2.22,2.22,0,0,1,.16-.82A2.31,2.31,0,0,1,.62.62,2.31,2.31,0,0,1,1.31.16,2.22,2.22,0,0,1,2.13,0a2.21,2.21,0,0,1,.81.16,2.31,2.31,0,0,1,.69.46,2.31,2.31,0,0,1,.46.69,2.22,2.22,0,0,1,.16.82A6.14,6.14,0,0,1,3.41,4.36Z"/></g></g></svg>