<svg xmlns="http://www.w3.org/2000/svg" viewBox="0 0 3.49 4.86"><defs><style>.cls-1{fill:#acafbd;}</style></defs><title>lock</title><g id="Layer_2" data-name="Layer 2"><g id="Layer_1-2" data-name="Layer 1"><path class="cls-1" d="M2.93,1.7h.41a.15.15,0,0,1,.15.14V4.71a.15.15,0,0,1-.15.15H.14A.15.15,0,0,1,0,4.71V1.84A.14.14,0,0,1,.14,1.7H.56V1.18A1.18,1.18,0,0,1,.91.35,1.14,1.14,0,0,1,1.74,0a1.15,1.15,0,0,1,.84.35,1.18,1.18,0,0,1,.35.83ZM.85,1.7H2.63V1.18A.88.88,0,0,0,2.37.55.86.86,0,0,0,1.74.29a.89.89,0,0,0-.63.26.92.92,0,0,0-.26.63ZM3.2,2H.29V4.57H3.2ZM1.89,3.31v.46a.14.14,0,0,1-.15.15.14.14,0,0,1-.14-.15V3.31l0,0a.23.23,0,0,1-.07-.17.24.24,0,0,1,.07-.18h0a.28.28,0,0,1,.16-.07A.25.25,0,0,1,1.92,3h0A.27.27,0,0,1,2,3.12a.23.23,0,0,1-.07.17Z"/></g></g></svg>