<svg xmlns="http://www.w3.org/2000/svg" viewBox="0 0 4.51 4.5"><defs><style>.cls-1{fill:#acafbd;}</style></defs><title>loupe</title><g id="Layer_2" data-name="Layer 2"><g id="Layer_1-2" data-name="Layer 1"><path class="cls-1" d="M2.6.68a1.32,1.32,0,0,0-1-.4,1.34,1.34,0,0,0-1,.4,1.32,1.32,0,0,0-.4,1,1.32,1.32,0,0,0,.4,1,1.34,1.34,0,0,0,1,.4,1.32,1.32,0,0,0,1-.4,1.32,1.32,0,0,0,.4-1A1.32,1.32,0,0,0,2.6.68ZM4.46,4.15l-.31.31a.13.13,0,0,1-.2,0L2.79,3.3a.15.15,0,0,1,0-.2l0-.05L2.69,2.9a1.64,1.64,0,1,1,.59-1.26A1.62,1.62,0,0,1,2.89,2.7L3,2.85l.06-.06a.15.15,0,0,1,.2,0L4.46,4A.13.13,0,0,1,4.46,4.15Zm-.41,0,.12-.11-1-1-.11.11Z"/></g></g></svg>