<svg xmlns="http://www.w3.org/2000/svg" viewBox="0 0 7.02 6.51"><defs><style>.cls-1{fill:#acafbd;}</style></defs><title>paint</title><g id="Layer_2" data-name="Layer 2"><g id="Layer_1-2" data-name="Layer 1"><path class="cls-1" d="M1.24,5.78h0a.46.46,0,0,0,.3.12.44.44,0,0,0,.32-.13A.43.43,0,0,0,2,5.47a.42.42,0,0,0-.12-.3h0a.4.4,0,0,1-.13-.31.43.43,0,0,1,.13-.31h0a.45.45,0,0,1,.31-.12.4.4,0,0,1,.3.11h0L3.71,5.78h0a1.49,1.49,0,0,0,2.07,0h0a3.21,3.21,0,0,0,0-4.54h0A3.23,3.23,0,0,0,3.51.29a3.19,3.19,0,0,0-2.27.94h0A3.23,3.23,0,0,0,.29,3.51,3.19,3.19,0,0,0,1.24,5.78ZM3.42,1.35a.61.61,0,0,1,.16.4.58.58,0,0,1-.17.41h0A.6.6,0,0,1,3,2.34a.62.62,0,0,1-.41-.17v0a.55.55,0,0,1-.16-.4.58.58,0,0,1,.17-.41h0A.57.57,0,0,1,3,1.17a.58.58,0,0,1,.42.17Zm-.13.4a.32.32,0,0,0-.08-.2h0A.32.32,0,0,0,3,1.46a.32.32,0,0,0-.2.08h0a.3.3,0,0,0-.09.21.3.3,0,0,0,.08.2h0a.29.29,0,0,0,.4,0h0A.29.29,0,0,0,3.29,1.75Zm1,3.73h0A.75.75,0,0,1,4,5a.7.7,0,0,1,.22-.52h0a.75.75,0,0,1,1,0h0a.74.74,0,0,1,.2.51.73.73,0,0,1-.21.51,0,0,0,0,1,0,0,.72.72,0,0,1-1,0ZM4.31,5a.42.42,0,0,0,.12.3h0a.46.46,0,0,0,.61,0h0A.43.43,0,0,0,5.19,5a.47.47,0,0,0-.12-.31h0a.43.43,0,0,0-.31-.13.42.42,0,0,0-.3.12h0A.44.44,0,0,0,4.31,5ZM5.45,3.61a.15.15,0,0,0,.11,0,.14.14,0,0,0,.14-.14.15.15,0,0,0,0-.11.18.18,0,0,0-.1,0,.21.21,0,0,0-.11,0,.21.21,0,0,0,0,.11A.18.18,0,0,0,5.45,3.61Zm-.2.21a.43.43,0,0,1,0-.62h0a.45.45,0,0,1,.31-.12.43.43,0,0,1,.31.13h0A.48.48,0,0,1,6,3.51a.48.48,0,0,1-.13.31A.43.43,0,0,1,5.56,4,.42.42,0,0,1,5.25,3.82ZM5,2.27H5A.26.26,0,0,0,5,2.06.31.31,0,0,0,5,1.86H5a.32.32,0,0,0-.21-.08.32.32,0,0,0-.2.08h0a.3.3,0,0,0-.08.2.26.26,0,0,0,.08.2h0a.34.34,0,0,0,.21.08A.26.26,0,0,0,5,2.27Zm.21.2h0a.56.56,0,0,1-.4.17.55.55,0,0,1-.41-.18h0a.55.55,0,0,1-.16-.4.56.56,0,0,1,.17-.41h0a.57.57,0,0,1,.4-.16.54.54,0,0,1,.41.17h0a.6.6,0,0,1,.15.4A.59.59,0,0,1,5.17,2.47ZM1,6H1A3.5,3.5,0,0,1,1,1H1A3.5,3.5,0,0,1,6,1H6A3.5,3.5,0,0,1,6,6H6A1.74,1.74,0,0,1,3.52,6h0L2.28,4.76h0a.14.14,0,0,0-.09,0,.15.15,0,0,0-.11,0h0a.16.16,0,0,0,0,.21h0a.71.71,0,0,1,0,1,.74.74,0,0,1-.52.22A.7.7,0,0,1,1,6Z"/></g></g></svg>