<svg xmlns="http://www.w3.org/2000/svg" viewBox="0 0 6.5 6.49"><defs><style>.cls-1{fill:#acafbd;}</style></defs><title>pen</title><g id="Layer_2" data-name="Layer 2"><g id="Layer_1-2" data-name="Layer 1"><path class="cls-1" d="M1.69,5.62l-.1-.1L1.07,6a.15.15,0,0,1-.2,0l-.1-.1-.52.51a.14.14,0,0,1-.21,0,.15.15,0,0,1,0-.2l.52-.52-.1-.1a.14.14,0,0,1,0-.21L1,4.9l-.1-.1a.15.15,0,0,1,0-.21L3.76,1.7h0L5.09.37a.41.41,0,0,0-.19,0,.43.43,0,0,0-.31.13h0L2.94,2.11a.15.15,0,0,1-.21-.21L4.38.26h0A.71.71,0,0,1,4.9,0a.72.72,0,0,1,.4.12L5.42,0a.17.17,0,0,1,.21,0l.82.83a.14.14,0,0,1,0,.21L4.8,2.73h0L1.9,5.63a.15.15,0,0,1-.2,0Zm-.3-.3-.21-.21-.41.41.09.1h0l.09.1ZM4.07,1.8l.62.62L6.14,1,5.52.35l-.09.1h0Zm.42.83L3.87,2,1.18,4.69l.1.1h0l.42.41h0l.1.1Z"/></g></g></svg>