<svg xmlns="http://www.w3.org/2000/svg" viewBox="0 0 3.74 5.47"><defs><style>.cls-1{fill:#acafbd;}</style></defs><title>ring</title><g id="Layer_2" data-name="Layer 2"><g id="Layer_1-2" data-name="Layer 1"><path class="cls-1" d="M.44,3H.14A.15.15,0,0,0,0,3.12,2.06,2.06,0,0,0,.17,4a.59.59,0,0,0,.55.35H3a.64.64,0,0,0,.64-.53,2.39,2.39,0,0,0,.08-.7A.15.15,0,0,0,3.6,3H3.3V2.29a1.31,1.31,0,0,0-.43-.93A1.53,1.53,0,0,0,2,1H2V.81H2A.42.42,0,0,0,2.17.71.37.37,0,0,0,2.31.42a.39.39,0,0,0-.14-.3A.42.42,0,0,0,1.87,0a.47.47,0,0,0-.31.12.42.42,0,0,0-.13.3A.4.4,0,0,0,1.55.7h0A.46.46,0,0,0,1.71.8h0V1h0a1.5,1.5,0,0,0-.83.37,1.29,1.29,0,0,0-.43.92ZM3,3H.73V2.29a1,1,0,0,1,.33-.72,1.2,1.2,0,0,1,.81-.3,1.2,1.2,0,0,1,.81.3A1,1,0,0,1,3,2.29Zm.44.32a1.68,1.68,0,0,1-.06.45c-.06.18-.17.33-.37.33H.72a.35.35,0,0,1-.3-.21,1.36,1.36,0,0,1-.13-.57v0H3.45ZM2,.51a.21.21,0,0,1-.11,0,.21.21,0,0,1-.11,0h0a.12.12,0,0,1,0-.08.13.13,0,0,1,0-.09.19.19,0,0,1,.12,0A.15.15,0,0,1,2,.33.1.1,0,0,1,2,.42.12.12,0,0,1,2,.51Zm.25,4.35a.33.33,0,0,1-.1.23.41.41,0,0,1-.26.09.39.39,0,0,1-.26-.09h0a.31.31,0,0,1-.09-.22.14.14,0,0,0-.14-.14.15.15,0,0,0-.15.14.57.57,0,0,0,.19.42v0a.68.68,0,0,0,.9,0,.61.61,0,0,0,.19-.44.14.14,0,0,0-.28,0Z"/></g></g></svg>