<svg xmlns="http://www.w3.org/2000/svg" viewBox="0 0 1.68 3.54"><defs><style>.cls-1{fill:#acafbd;}</style></defs><title>sand-clock</title><g id="Layer_2" data-name="Layer 2"><g id="Layer_1-2" data-name="Layer 1"><path class="cls-1" d="M.28,3.26H1.39V3H.28Zm1.11-.58V2.32L1,1.91H.69l-.41.41v.36Zm.29.14h0V3.4a.14.14,0,0,1-.14.14H.14A.14.14,0,0,1,0,3.4V2.26a.14.14,0,0,1,0-.1l.39-.39L.05,1.38H0V.14A.15.15,0,0,1,.14,0h1.4a.14.14,0,0,1,.14.14V1.27H1.63l-.38.39.38.39a.14.14,0,0,1,.05.1ZM.28,1.14H1.39V.28H.28Zm.92.28H.48l.21.21H1Z"/></g></g></svg>