<svg xmlns="http://www.w3.org/2000/svg" viewBox="0 0 7.13 6.85"><defs><style>.cls-1{fill:#acafbd;}</style></defs><title>shovel</title><g id="Layer_2" data-name="Layer 2"><g id="Layer_1-2" data-name="Layer 1"><path class="cls-1" d="M.09,5.37l.88-3A.9.9,0,0,1,1.21,2a.71.71,0,0,1,.3-.18.61.61,0,0,1,.38,0,1,1,0,0,1,.45.29l.89.94.58-.55-.23-.24.1-.1.46-.43h0l.1-.1L5.77.2A.79.79,0,0,1,6.33,0,.8.8,0,0,1,6.9.26l0,0a.86.86,0,0,1,.2.56.88.88,0,0,1-.24.56c-.52.52-1.09,1-1.63,1.54h0l-.56.53-.23-.24-.58.54.89.94a1,1,0,0,1,.27.46.64.64,0,0,1,0,.39.7.7,0,0,1-.19.28.92.92,0,0,1-.4.23l-3,.71a1.61,1.61,0,0,1-.84,0,.73.73,0,0,1-.36-.22A.71.71,0,0,1,0,6.21,1.67,1.67,0,0,1,.09,5.37ZM3,3.27l-.88-.94a.82.82,0,0,0-.33-.22.41.41,0,0,0-.22,0,.42.42,0,0,0-.18.11.54.54,0,0,0-.17.27l-.88,3a1.44,1.44,0,0,0-.06.69.66.66,0,0,0,.13.25.57.57,0,0,0,.24.14,1.36,1.36,0,0,0,.69,0l3-.72a.56.56,0,0,0,.27-.15.46.46,0,0,0,.13-.18.41.41,0,0,0,0-.22.87.87,0,0,0-.21-.34L3.69,4l-.87.82a.47.47,0,0,1-.35.14.48.48,0,0,1-.33-.15l0,0h0A.5.5,0,0,1,2,4.43a.46.46,0,0,1,.15-.34l0,0Zm1-.54L2.34,4.3a.19.19,0,0,0,0,.28h0a.24.24,0,0,0,.14,0,.18.18,0,0,0,.14,0L4.28,3Zm.54-1,.74.78,1.4-1.33A.55.55,0,0,0,6.84.83.49.49,0,0,0,6.71.47l0,0h0A.53.53,0,0,0,6.32.28a.57.57,0,0,0-.38.15l0,0ZM4.33,2,4,2.29l.73.78.36-.34Z"/></g></g></svg>