<svg xmlns="http://www.w3.org/2000/svg" viewBox="0 0 2.82 2.82"><defs><style>.cls-1{fill:#acafbd;}</style></defs><title>target</title><g id="Layer_2" data-name="Layer 2"><g id="Layer_1-2" data-name="Layer 1"><path class="cls-1" d="M2.07,2.68a.15.15,0,0,1-.15.14.14.14,0,0,1-.14-.14V1.92a.15.15,0,0,1,.14-.14h.76a.14.14,0,0,1,.14.14.15.15,0,0,1-.14.15H2.07ZM.75.14A.14.14,0,0,1,1,.14V.89A.14.14,0,0,1,.89,1H.14a.14.14,0,0,1,0-.28H.75ZM.14,2.07A.15.15,0,0,1,0,1.92a.14.14,0,0,1,.14-.14H.89A.14.14,0,0,1,1,1.92v.76a.14.14,0,0,1-.28,0V2.07ZM1.78.14A.14.14,0,0,1,1.92,0a.15.15,0,0,1,.15.14V.75h.61a.14.14,0,0,1,0,.28H1.92A.14.14,0,0,1,1.78.89Z"/></g></g></svg>