<svg xmlns="http://www.w3.org/2000/svg" viewBox="0 0 3.94 5.16"><defs><style>.cls-1{fill:#acafbd;}</style></defs><title>user</title><g id="Layer_2" data-name="Layer 2"><g id="Layer_1-2" data-name="Layer 1"><path class="cls-1" d="M1.48,3.29v.59L.33,4.3A2.54,2.54,0,0,0,2,4.9a2.49,2.49,0,0,0,1.64-.61L2.52,3.88V3.26A1.15,1.15,0,0,1,2,3.4,1.17,1.17,0,0,1,1.48,3.29ZM0,4.14l1.22-.45V3.14A1.6,1.6,0,0,1,1,2.89,1.85,1.85,0,0,1,.53,1.7,1.81,1.81,0,0,1,1,.51,1.31,1.31,0,0,1,2,0,1.31,1.31,0,0,1,3,.51,1.81,1.81,0,0,1,3.4,1.7,1.85,1.85,0,0,1,3,2.89a1.39,1.39,0,0,1-.21.21v.59l1.16.45v.2A2.78,2.78,0,0,1,0,4.34ZM3.14,1.7a.91.91,0,0,1-.62-.08,1.11,1.11,0,0,1-.36-.33,1,1,0,0,1-.33.24,1.37,1.37,0,0,1-.65.17,1,1,0,0,1-.29,0l-.09,0V1.7a1.58,1.58,0,0,0,.36,1A1,1,0,0,0,2,3.13a1,1,0,0,0,.82-.41A1.57,1.57,0,0,0,3.14,1.7ZM.82,1.37l.13,0a.91.91,0,0,0,.23,0,1.1,1.1,0,0,0,.53-.14A.76.76,0,0,0,2.06,1l.1-.21L2.28,1a1,1,0,0,0,.36.39.69.69,0,0,0,.48.05h0A1.54,1.54,0,0,0,2.79.67,1.08,1.08,0,0,0,2,.26a1.08,1.08,0,0,0-.82.41A1.62,1.62,0,0,0,.82,1.37Z"/></g></g></svg>