<svg xmlns="http://www.w3.org/2000/svg" viewBox="0 0 3.39 3.38"><defs><style>.cls-1{fill:#acafbd;}</style></defs><title>view</title><g id="Layer_2" data-name="Layer 2"><g id="Layer_1-2" data-name="Layer 1"><path class="cls-1" d="M.28.89A.14.14,0,0,1,.14,1,.14.14,0,0,1,0,.89V.14A.14.14,0,0,1,.14,0H.89A.14.14,0,0,1,1,.14.14.14,0,0,1,.89.28H.28ZM.89,3.1a.14.14,0,0,1,0,.28H.14A.14.14,0,0,1,0,3.24V2.49a.15.15,0,0,1,.14-.14.14.14,0,0,1,.14.14V3.1ZM3.39.89A.14.14,0,0,1,3.25,1,.15.15,0,0,1,3.1.89V.28H2.49A.14.14,0,0,1,2.35.14.14.14,0,0,1,2.49,0h.76a.14.14,0,0,1,.14.14ZM3.1,2.49a.15.15,0,0,1,.15-.14.15.15,0,0,1,.14.14v.75a.14.14,0,0,1-.14.14H2.49a.14.14,0,1,1,0-.28H3.1Z"/></g></g></svg>