<svg xmlns="http://www.w3.org/2000/svg" viewBox="0 0 47.3 7.62"><defs><style>.cls-1{fill:#ffe987;}.cls-2{fill:#393f4d;}</style></defs><title>logo-yellow</title><g id="Layer_2" data-name="Layer 2"><g id="Layer_1-2" data-name="Layer 1"><rect class="cls-1" x="23.82" y="2.42" width="23.47" height="5.2"/><path class="cls-2" d="M4,7.22A2.6,2.6,0,1,1,2.6,2.42V3.64A1.39,1.39,0,1,0,4,5H5.2v2.6H4Zm17.84-2.8V5.63h2v2H25v-2h2V4.42H25v-2H23.82v2ZM47.3,5H46.09v2.6H47.3ZM42.1,5a2.6,2.6,0,0,1,2.6-2.6V3.64A1.38,1.38,0,0,0,43.31,5v2.6H42.1V5ZM40,5a2.6,2.6,0,1,1-2.6-2.6V3.64A1.39,1.39,0,1,0,38.81,5Zm-9.7-3.81h1.21V0H30.32Zm1.21,6.41h1.21V6.41H31.53v-4H29.11V3.64h1.21V6.41H29.11V7.62h2.42ZM19.75,5a2.6,2.6,0,1,0-2.6,2.6V6.41A1.39,1.39,0,1,1,18.54,5ZM12.48,5H11.26V2.42h1.22ZM7.28,5a2.59,2.59,0,0,0,2.6,2.6V6.41A1.39,1.39,0,0,1,8.49,5V2.42H7.28V5Z"/></g></g></svg>