<?xml version="1.0" encoding="UTF-8"?><!DOCTYPE svg PUBLIC "-//W3C//DTD SVG 1.1//EN" "http://www.w3.org/Graphics/SVG/1.1/DTD/svg11.dtd"><svg xmlns="http://www.w3.org/2000/svg"><defs>
        <style>
            .cls-1{fill:#acafbd}
        </style>
    
        <style>
            .cls-1{fill:#acafbd}
        </style>
    
        <style>
            .cls-1{fill:#acafbd}
        </style>
    
        <style>
            .cls-1{fill:#acafbd}
        </style>
    
        <style>
            .cls-1{fill:#acafbd}
        </style>
    </defs><symbol id="icon-beg" viewBox="0 0 5.03 4.86">
    
    <title>
        beg
    </title>
    <g id="Layer_2" data-name="Layer 2">
        <path class="cls-1" d="M.14 1.26h1V.75a.73.73 0 0 1 .23-.53A.73.73 0 0 1 1.9 0h1.23a.76.76 0 0 1 .53.22.78.78 0 0 1 .21.53v.51h1A.14.14 0 0 1 5 1.4v3.32a.14.14 0 0 1-.14.14H.14A.14.14 0 0 1 0 4.72V1.4a.14.14 0 0 1 .14-.14zm2.37.9a.47.47 0 0 1 .33.13.48.48 0 0 1 .16.33v.09h1.75V1.54H.28v1.17h1.78v-.09a.49.49 0 0 1 .13-.33.46.46 0 0 1 .32-.13zM3 3v.09a.46.46 0 0 1-.13.32.47.47 0 0 1-.33.13.46.46 0 0 1-.32-.13.46.46 0 0 1-.13-.32V3H.28v1.58h4.47V3zm-.46-.55a.18.18 0 0 0-.12.05.21.21 0 0 0-.05.13v.46a.17.17 0 0 0 .05.12.18.18 0 0 0 .12 0 .19.19 0 0 0 .13 0 .17.17 0 0 0 0-.12v-.47a.17.17 0 0 0 0-.12.19.19 0 0 0-.16-.06zM1.43 1.26H3.6V.75a.49.49 0 0 0-.13-.33.48.48 0 0 0-.34-.14H1.9a.44.44 0 0 0-.33.14.47.47 0 0 0-.13.33z" id="Layer_1-2" data-name="Layer 1"/>
    </g>
</symbol><symbol id="icon-fb" viewBox="0 0 96.124 96.123">
    <path d="M72.089.02L59.624 0C45.62 0 36.57 9.285 36.57 23.656v10.907H24.037a1.96 1.96 0 0 0-1.96 1.961v15.803a1.96 1.96 0 0 0 1.96 1.96H36.57v39.876a1.96 1.96 0 0 0 1.96 1.96h16.352a1.96 1.96 0 0 0 1.96-1.96V54.287h14.654a1.96 1.96 0 0 0 1.96-1.96l.006-15.803a1.963 1.963 0 0 0-1.961-1.961H56.842v-9.246c0-4.444 1.059-6.7 6.848-6.7l8.397-.003a1.96 1.96 0 0 0 1.959-1.96V1.98A1.96 1.96 0 0 0 72.089.02z"/>
</symbol><symbol id="icon-hammer" viewBox="0 0 5 5">
    
    <title>
        hammer
    </title>
    <g id="Layer_2" data-name="Layer 2">
        <path class="cls-1" d="M4.65 5L5 4.65a.17.17 0 0 0 0-.21L3.8 3.28a.17.17 0 0 0-.21 0v.05l-.8-.8.45-.45a.22.22 0 0 0 .16 0A.27.27 0 0 0 3.6 2l.22-.22a.27.27 0 0 0 0-.4L2.42.08A.27.27 0 0 0 2.23 0 .27.27 0 0 0 2 .08l-.2.23a.27.27 0 0 0-.08.19.25.25 0 0 0 .05.15L.67 1.77a.33.33 0 0 0-.16-.05.27.27 0 0 0-.19.08L.08 2a.28.28 0 0 0-.08.2.3.3 0 0 0 .08.17l1.35 1.4a.27.27 0 0 0 .4 0l.22-.22a.27.27 0 0 0 .08-.2.22.22 0 0 0 0-.16l.46-.46.8.8v.06a.13.13 0 0 0 0 .2L4.45 5a.15.15 0 0 0 .2 0zM.87 2l1 1L3 1.89l-1-1zm.91 1.3L.58 2.07.51 2l-.23.23 1.35 1.34.22-.22-.06-.07zm.3-2.72l1.2 1.2.07.07.22-.22L2.23.28 2 .5l.07.07zm2.58 4l-.11.12-1-1 .12-.11z" id="Layer_1-2" data-name="Layer 1"/>
    </g>
</symbol><symbol id="icon-inst" viewBox="0 0 97.395 97.395">
    <path d="M12.501 0h72.393c6.875 0 12.5 5.09 12.5 12.5v72.395c0 7.41-5.625 12.5-12.5 12.5H12.501C5.624 97.395 0 92.305 0 84.895V12.5C0 5.09 5.624 0 12.501 0zm58.447 10.821a4.395 4.395 0 0 0-4.383 4.385v10.495a4.396 4.396 0 0 0 4.383 4.385h11.008a4.398 4.398 0 0 0 4.385-4.385V15.206a4.397 4.397 0 0 0-4.385-4.385H70.948zm15.439 30.367h-8.572a28.486 28.486 0 0 1 1.25 8.355c0 16.2-13.556 29.332-30.275 29.332-16.718 0-30.272-13.132-30.272-29.332 0-2.904.438-5.708 1.25-8.355h-8.945v41.141a3.884 3.884 0 0 0 3.872 3.872h67.822a3.883 3.883 0 0 0 3.872-3.872V41.188h-.002zM48.789 29.533c-10.802 0-19.56 8.485-19.56 18.953s8.758 18.953 19.56 18.953c10.803 0 19.562-8.485 19.562-18.953s-8.758-18.953-19.562-18.953z"/>
</symbol><symbol id="icon-location" viewBox="0 0 4.25 6.33">
    
    <title>
        location
    </title>
    <g id="Layer_2" data-name="Layer 2">
        <path class="cls-1" d="M2.13 6c.25-.4.66-1.07 1-1.76A6.1 6.1 0 0 0 4 2.13a1.83 1.83 0 0 0-.14-.71 1.86 1.86 0 0 0-.4-.6 1.91 1.91 0 0 0-.6-.4 1.82 1.82 0 0 0-.7-.14 1.87 1.87 0 0 0-.71.14 2 2 0 0 0-.6.4 2 2 0 0 0-.4.6 1.83 1.83 0 0 0-.14.71 6.1 6.1 0 0 0 .81 2.1c.34.69.75 1.36 1.01 1.77zm1-3.86A.94.94 0 0 1 3 2.5a.77.77 0 0 1-.22.31.87.87 0 0 1-.28.19.94.94 0 0 1-.37.07A1 1 0 0 1 1.75 3a.84.84 0 0 1-.31-.22 1.16 1.16 0 0 1-.22-.31 1.16 1.16 0 0 1-.07-.37 1.17 1.17 0 0 1 .07-.38 1.4 1.4 0 0 1 .22-.32 1.13 1.13 0 0 1 .31-.21 1.22 1.22 0 0 1 .38-.07 1.16 1.16 0 0 1 .37.07 1.2 1.2 0 0 1 .31.21 1 1 0 0 1 .19.35 1 1 0 0 1 .1.38zm-.33.26a.75.75 0 0 0 0-.26.76.76 0 0 0 0-.27.86.86 0 0 0-.15-.22.65.65 0 0 0-.23-.15.58.58 0 0 0-.26-.06.6.6 0 0 0-.27.06.54.54 0 0 0-.22.15.54.54 0 0 0-.15.22.6.6 0 0 0-.06.27.58.58 0 0 0 .06.26.54.54 0 0 0 .15.22.54.54 0 0 0 .22.15.6.6 0 0 0 .27.06.58.58 0 0 0 .26-.06.54.54 0 0 0 .22-.15.69.69 0 0 0 .13-.23zm.64 2C3 5.2 2.47 6 2.25 6.33H2A32.4 32.4 0 0 1 .84 4.36 6.14 6.14 0 0 1 0 2.13a2.22 2.22 0 0 1 .16-.82A2.31 2.31 0 0 1 .62.62a2.31 2.31 0 0 1 .69-.46A2.22 2.22 0 0 1 2.13 0a2.21 2.21 0 0 1 .81.16 2.31 2.31 0 0 1 .69.46 2.31 2.31 0 0 1 .46.69 2.22 2.22 0 0 1 .16.82 6.14 6.14 0 0 1-.84 2.23z" id="Layer_1-2" data-name="Layer 1"/>
    </g>
</symbol><symbol id="icon-lock" viewBox="0 0 3.49 4.86">
    
    <title>
        lock
    </title>
    <g id="Layer_2" data-name="Layer 2">
        <path class="cls-1" d="M2.93 1.7h.41a.15.15 0 0 1 .15.14v2.87a.15.15 0 0 1-.15.15H.14A.15.15 0 0 1 0 4.71V1.84a.14.14 0 0 1 .14-.14h.42v-.52A1.18 1.18 0 0 1 .91.35 1.14 1.14 0 0 1 1.74 0a1.15 1.15 0 0 1 .84.35 1.18 1.18 0 0 1 .35.83zm-2.08 0h1.78v-.52a.88.88 0 0 0-.26-.63.86.86 0 0 0-.63-.26.89.89 0 0 0-.63.26.92.92 0 0 0-.26.63zM3.2 2H.29v2.57H3.2zM1.89 3.31v.46a.14.14 0 0 1-.15.15.14.14 0 0 1-.14-.15v-.46a.23.23 0 0 1-.07-.17.24.24 0 0 1 .07-.18.28.28 0 0 1 .16-.07.25.25 0 0 1 .16.11.27.27 0 0 1 .08.12.23.23 0 0 1-.07.17z" id="Layer_1-2" data-name="Layer 1"/>
    </g>
</symbol><symbol id="icon-loupe" viewBox="0 0 4.51 4.5">
    
    <title>
        loupe
    </title>
    <g id="Layer_2" data-name="Layer 2">
        <path class="cls-1" d="M2.6.68a1.32 1.32 0 0 0-1-.4 1.34 1.34 0 0 0-1 .4 1.32 1.32 0 0 0-.4 1 1.32 1.32 0 0 0 .4 1 1.34 1.34 0 0 0 1 .4 1.32 1.32 0 0 0 1-.4 1.32 1.32 0 0 0 .4-1 1.32 1.32 0 0 0-.4-1zm1.86 3.47l-.31.31a.13.13 0 0 1-.2 0L2.79 3.3a.15.15 0 0 1 0-.2v-.05l-.1-.15a1.64 1.64 0 1 1 .59-1.26 1.62 1.62 0 0 1-.39 1.06l.11.15.06-.06a.15.15 0 0 1 .2 0L4.46 4a.13.13 0 0 1 0 .15zm-.41 0l.12-.11-1-1-.11.11z" id="Layer_1-2" data-name="Layer 1"/>
    </g>
</symbol><symbol id="icon-sld-arr-l" viewBox="0 0 451.847 451.847">
    <path d="M97.141 225.92c0-8.095 3.091-16.192 9.259-22.366L300.689 9.27c12.359-12.359 32.397-12.359 44.751 0 12.354 12.354 12.354 32.388 0 44.748L173.525 225.92l171.903 171.909c12.354 12.354 12.354 32.391 0 44.744-12.354 12.365-32.386 12.365-44.745 0l-194.29-194.281c-6.167-6.177-9.252-14.274-9.252-22.372z"/>
</symbol><symbol id="icon-sld-arr-r" viewBox="0 0 451.846 451.847">
    <path d="M345.441 248.292L151.154 442.573c-12.359 12.365-32.397 12.365-44.75 0-12.354-12.354-12.354-32.391 0-44.744L278.318 225.92 106.409 54.017c-12.354-12.359-12.354-32.394 0-44.748 12.354-12.359 32.391-12.359 44.75 0l194.287 194.284c6.177 6.18 9.262 14.271 9.262 22.366 0 8.099-3.091 16.196-9.267 22.373z"/>
</symbol><symbol id="icon-star" viewBox="0 0 19.481 19.481">
    <path d="M10.201.758l2.478 5.865 6.344.545a.5.5 0 0 1 .285.876l-4.812 4.169 1.442 6.202a.5.5 0 0 1-.745.541l-5.452-3.288-5.452 3.288a.5.5 0 0 1-.745-.541l1.442-6.202-4.813-4.17a.5.5 0 0 1 .285-.876l6.344-.545L9.28.758a.5.5 0 0 1 .921 0z"/>
</symbol><symbol id="icon-vk" viewBox="0 0 548.358 548.358">
    <path d="M545.451 400.298c-.664-1.431-1.283-2.618-1.858-3.569-9.514-17.135-27.695-38.167-54.532-63.102l-.567-.571-.284-.28-.287-.287h-.288c-12.18-11.611-19.893-19.418-23.123-23.415-5.91-7.614-7.234-15.321-4.004-23.13 2.282-5.9 10.854-18.36 25.696-37.397 7.807-10.089 13.99-18.175 18.556-24.267 32.931-43.78 47.208-71.756 42.828-83.939l-1.701-2.847c-1.143-1.714-4.093-3.282-8.846-4.712-4.764-1.427-10.853-1.663-18.278-.712l-82.224.568c-1.332-.472-3.234-.428-5.712.144l-3.713.859-1.431.715-1.136.859c-.952.568-1.999 1.567-3.142 2.995-1.137 1.423-2.088 3.093-2.848 4.996-8.952 23.031-19.13 44.444-30.553 64.238-7.043 11.803-13.511 22.032-19.418 30.693-5.899 8.658-10.848 15.037-14.842 19.126-4 4.093-7.61 7.372-10.852 9.849-3.237 2.478-5.708 3.525-7.419 3.142-1.715-.383-3.33-.763-4.859-1.143-2.663-1.714-4.805-4.045-6.42-6.995-1.622-2.95-2.714-6.663-3.285-11.136-.568-4.476-.904-8.326-1-11.563-.089-3.233-.048-7.806.145-13.706.198-5.903.287-9.897.287-11.991 0-7.234.141-15.085.424-23.555.288-8.47.521-15.181.716-20.125.194-4.949.284-10.185.284-15.705s-.336-9.849-1-12.991a44.442 44.442 0 0 0-2.99-9.137c-1.335-2.95-3.289-5.232-5.853-6.852-2.569-1.618-5.763-2.902-9.564-3.856-10.089-2.283-22.936-3.518-38.547-3.71-35.401-.38-58.148 1.906-68.236 6.855-3.997 2.091-7.614 4.948-10.848 8.562-3.427 4.189-3.905 6.475-1.431 6.851 11.422 1.711 19.508 5.804 24.267 12.275l1.715 3.429c1.334 2.474 2.666 6.854 3.999 13.134 1.331 6.28 2.19 13.227 2.568 20.837.95 13.897.95 25.793 0 35.689-.953 9.9-1.853 17.607-2.712 23.127-.859 5.52-2.143 9.993-3.855 13.418-1.715 3.426-2.856 5.52-3.428 6.28-.571.76-1.047 1.239-1.425 1.427a21.387 21.387 0 0 1-7.71 1.431c-2.667 0-5.901-1.334-9.707-4-3.805-2.666-7.754-6.328-11.847-10.992-4.093-4.665-8.709-11.184-13.85-19.558-5.137-8.374-10.467-18.271-15.987-29.691l-4.567-8.282c-2.855-5.328-6.755-13.086-11.704-23.267-4.952-10.185-9.329-20.037-13.134-29.554-1.521-3.997-3.806-7.04-6.851-9.134l-1.429-.859c-.95-.76-2.475-1.567-4.567-2.427a30.301 30.301 0 0 0-6.567-1.854l-78.229.568c-7.994 0-13.418 1.811-16.274 5.428l-1.143 1.711c-.571.953-.859 2.475-.859 4.57 0 2.094.571 4.664 1.714 7.707 11.42 26.84 23.839 52.725 37.257 77.659 13.418 24.934 25.078 45.019 34.973 60.237 9.897 15.229 19.985 29.602 30.264 43.112 10.279 13.515 17.083 22.176 20.412 25.981 3.333 3.812 5.951 6.662 7.854 8.565l7.139 6.851c4.568 4.569 11.276 10.041 20.127 16.416 8.853 6.379 18.654 12.659 29.408 18.85 10.756 6.181 23.269 11.225 37.546 15.126 14.275 3.905 28.169 5.472 41.684 4.716h32.834c6.659-.575 11.704-2.669 15.133-6.283l1.136-1.431c.764-1.136 1.479-2.901 2.139-5.276.668-2.379 1-5 1-7.851-.195-8.183.428-15.558 1.852-22.124 1.423-6.564 3.045-11.513 4.859-14.846 1.813-3.33 3.859-6.14 6.136-8.418 2.282-2.283 3.908-3.666 4.862-4.142.948-.479 1.705-.804 2.276-.999 4.568-1.522 9.944-.048 16.136 4.429 6.187 4.473 11.99 9.996 17.418 16.56 5.425 6.57 11.943 13.941 19.555 22.124 7.617 8.186 14.277 14.271 19.985 18.274l5.708 3.426c3.812 2.286 8.761 4.38 14.853 6.283 6.081 1.902 11.409 2.378 15.984 1.427l73.087-1.14c7.229 0 12.854-1.197 16.844-3.572 3.998-2.379 6.373-5 7.139-7.851.764-2.854.805-6.092.145-9.712-.677-3.611-1.344-6.136-2.008-7.563z"/>
</symbol></svg>