<?xml version="1.0" encoding="UTF-8"?><!DOCTYPE svg PUBLIC "-//W3C//DTD SVG 1.1//EN" "http://www.w3.org/Graphics/SVG/1.1/DTD/svg11.dtd"><svg xmlns="http://www.w3.org/2000/svg"><defs>
        <style>
            .cls-1{fill:#acafbd}
        </style>
    
        <style>
            .cls-1{fill:#acafbd}
        </style>
    
        <style>
            .cls-1{fill:#acafbd}
        </style>
    
        <style>
            .cls-1{fill:#acafbd}
        </style>
    
        <style>
            .cls-1{fill:#acafbd}
        </style>
    
        <style>
            .cls-1{fill:#acafbd}
        </style>
    
        <style>
            .cls-1{fill:#acafbd}
        </style>
    
        <style>
            .cls-1{fill:#acafbd}
        </style>
    
        <style>
            .cls-1{fill:#acafbd}
        </style>
    
        <style>
            .cls-1{fill:#acafbd}
        </style>
    
        <style>
            .cls-1{fill:#acafbd}
        </style>
    
        <style>
            .cls-1{fill:#acafbd}
        </style>
    
        <style>
            .cls-1{fill:#aff1f2}.cls-2{fill:#393f4d}
        </style>
    
        <style>
            .cls-1{fill:#acafbd}
        </style>
    
        <style>
            .cls-1{fill:#ea001b}.cls-2{fill:#f79f1a}.cls-3{fill:#ff5f01}
        </style>
    
        <style>
            .cls-1{fill:#acafbd}
        </style>
    
        <style>
            .cls-1{fill:#acafbd}
        </style>
    
        <style>
            .cls-1{fill:#acafbd}
        </style>
    
        <style>
            .cls-1{fill:#acafbd}
        </style>
    
        <style>
            .cls-1{fill:#acafbd}
        </style>
    
        <style>
            .cls-1{fill:#acafbd}
        </style>
    
        <style>
            .cls-1{fill:#acafbd}
        </style>
    
        <style>
            .cls-1{fill:#acafbd}
        </style>
    
        <style>
            .cls-1{fill:#1a3680}.cls-2{fill:#ed9f01}
        </style>
    </defs><symbol id="icon-beg" viewBox="0 0 5.03 4.86">
    
    <title>
        beg
    </title>
    <g id="Layer_2" data-name="Layer 2">
        <path class="cls-1" d="M.14 1.26h1V.75a.73.73 0 0 1 .23-.53A.73.73 0 0 1 1.9 0h1.23a.76.76 0 0 1 .53.22.78.78 0 0 1 .21.53v.51h1A.14.14 0 0 1 5 1.4v3.32a.14.14 0 0 1-.14.14H.14A.14.14 0 0 1 0 4.72V1.4a.14.14 0 0 1 .14-.14zm2.37.9a.47.47 0 0 1 .33.13.48.48 0 0 1 .16.33v.09h1.75V1.54H.28v1.17h1.78v-.09a.49.49 0 0 1 .13-.33.46.46 0 0 1 .32-.13zM3 3v.09a.46.46 0 0 1-.13.32.47.47 0 0 1-.33.13.46.46 0 0 1-.32-.13.46.46 0 0 1-.13-.32V3H.28v1.58h4.47V3zm-.46-.55a.18.18 0 0 0-.12.05.21.21 0 0 0-.05.13v.46a.17.17 0 0 0 .05.12.18.18 0 0 0 .12 0 .19.19 0 0 0 .13 0 .17.17 0 0 0 0-.12v-.47a.17.17 0 0 0 0-.12.19.19 0 0 0-.16-.06zM1.43 1.26H3.6V.75a.49.49 0 0 0-.13-.33.48.48 0 0 0-.34-.14H1.9a.44.44 0 0 0-.33.14.47.47 0 0 0-.13.33z" id="Layer_1-2" data-name="Layer 1"/>
    </g>
</symbol><symbol id="icon-check" viewBox="0 0 26 26">
    <path d="M.3 14c-.2-.2-.3-.5-.3-.7s.1-.5.3-.7l1.4-1.4c.4-.4 1-.4 1.4 0l.1.1 5.5 5.9c.2.2.5.2.7 0L22.8 3.3h.1c.4-.4 1-.4 1.4 0l1.4 1.4c.4.4.4 1 0 1.4l-16 16.6c-.2.2-.4.3-.7.3-.3 0-.5-.1-.7-.3L.5 14.3.3 14z"/>
</symbol><symbol id="icon-close" viewBox="0 0 3.52 3.52">
    
    <title>
        close
    </title>
    <g id="Layer_2" data-name="Layer 2">
        <path class="cls-1" d="M0 .24A.15.15 0 0 1 0 0a.15.15 0 0 1 .2 0l1.56 1.56L3.28 0a.15.15 0 0 1 .2 0 .13.13 0 0 1 0 .2L2 1.76l1.48 1.52a.14.14 0 0 1-.2.2L1.76 2 .24 3.48a.13.13 0 0 1-.2 0 .15.15 0 0 1 0-.2l1.52-1.52z" id="Layer_1-2" data-name="Layer 1"/>
    </g>
</symbol><symbol id="icon-cloud-1" viewBox="0 0 5.18 4.73">
    
    <title>
        cloud-1
    </title>
    <g id="Layer_2" data-name="Layer 2">
        <path class="cls-1" d="M1.84 3.8L1 4.69a.21.21 0 0 1-.11 0 .14.14 0 0 1-.19-.1V3.8H.37a.41.41 0 0 1-.26-.11.38.38 0 0 1-.11-.26V.37A.36.36 0 0 1 .11.11.36.36 0 0 1 .37 0h4.44a.36.36 0 0 1 .26.11.36.36 0 0 1 .11.26v3.06a.38.38 0 0 1-.11.26.47.47 0 0 1-.25.11h-3zM1 4.24l.69-.69a.13.13 0 0 1 .1 0h3a.09.09 0 0 0 .07 0V.49a.07.07 0 0 0 0-.06.09.09 0 0 0-.07 0H.38a.09.09 0 0 0-.07 0 .11.11 0 0 0 0 .06v3a.14.14 0 0 0 0 .06.09.09 0 0 0 .07 0h.46a.14.14 0 0 1 .16.1zM3 1.9a.23.23 0 0 1-.08.18.23.23 0 0 1-.18.08.27.27 0 0 1-.19-.08.24.24 0 0 1-.07-.18.24.24 0 0 1 .08-.19.23.23 0 0 1 .18-.07.23.23 0 0 1 .18.07.24.24 0 0 1 .08.19zm.94 0a.25.25 0 0 1-.08.18.27.27 0 0 1-.19.08.25.25 0 0 1-.18-.08.23.23 0 0 1-.08-.18.27.27 0 0 1 .08-.19.27.27 0 0 1 .17-.06.26.26 0 0 1 .19.07.29.29 0 0 1 .06.18zM2 1.9a.25.25 0 0 1 0 .18.26.26 0 0 1-.19.08.25.25 0 0 1-.18-.08.23.23 0 0 1-.08-.18.27.27 0 0 1 .08-.19.24.24 0 0 1 .18-.07.25.25 0 0 1 .19.07.29.29 0 0 1 0 .19z" id="Layer_1-2" data-name="Layer 1"/>
    </g>
</symbol><symbol id="icon-cloud-2" viewBox="0 0 5.66 4.73">
    
    <title>
        cloud-2
    </title>
    <g id="Layer_2" data-name="Layer 2">
        <path class="cls-1" d="M1.84 3.8L1 4.69a.21.21 0 0 1-.11 0 .14.14 0 0 1-.19-.1V3.8H.37a.41.41 0 0 1-.26-.11.38.38 0 0 1-.11-.26V.37A.36.36 0 0 1 .11.11.36.36 0 0 1 .37 0h4.92a.35.35 0 0 1 .26.11.36.36 0 0 1 .11.26v3.06a.38.38 0 0 1-.11.26.44.44 0 0 1-.25.11H1.84zM1 4.24l.69-.69a.12.12 0 0 1 .1 0h3.5a.09.09 0 0 0 .06 0 .07.07 0 0 0 0-.06v-3-.06a.09.09 0 0 0-.06 0H.38a.09.09 0 0 0-.07 0 .11.11 0 0 0 0 .06v3a.14.14 0 0 0 0 .06.09.09 0 0 0 .07 0h.46a.15.15 0 0 1 .16.1zM3.21 1.9a.27.27 0 0 1-.07.18.29.29 0 0 1-.14.08.27.27 0 0 1-.19-.08.24.24 0 0 1-.07-.18.32.32 0 0 1 .07-.19.26.26 0 0 1 .19-.07.28.28 0 0 1 .19.07.24.24 0 0 1 .02.19zm.93 0a.24.24 0 0 1-.07.18.27.27 0 0 1-.19.08.25.25 0 0 1-.18-.08.23.23 0 0 1-.08-.18.27.27 0 0 1 .08-.19.27.27 0 0 1 .17-.06.26.26 0 0 1 .19.07.28.28 0 0 1 .08.18zm-1.86 0a.25.25 0 0 1-.08.18.27.27 0 0 1-.2.08.26.26 0 0 1-.19-.08.23.23 0 0 1-.08-.18.27.27 0 0 1 .08-.19.25.25 0 0 1 .19-.07.26.26 0 0 1 .18.07.29.29 0 0 1 .1.19z" id="Layer_1-2" data-name="Layer 1"/>
    </g>
</symbol><symbol id="icon-expand-button" viewBox="0 0 306 306">
    <path d="M270.3 58.65L153 175.95 35.7 58.65 0 94.35l153 153 153-153z"/>
</symbol><symbol id="icon-fb" viewBox="0 0 96.124 96.123">
    <path d="M72.089.02L59.624 0C45.62 0 36.57 9.285 36.57 23.656v10.907H24.037a1.96 1.96 0 0 0-1.96 1.961v15.803a1.96 1.96 0 0 0 1.96 1.96H36.57v39.876a1.96 1.96 0 0 0 1.96 1.96h16.352a1.96 1.96 0 0 0 1.96-1.96V54.287h14.654a1.96 1.96 0 0 0 1.96-1.96l.006-15.803a1.963 1.963 0 0 0-1.961-1.961H56.842v-9.246c0-4.444 1.059-6.7 6.848-6.7l8.397-.003a1.96 1.96 0 0 0 1.959-1.96V1.98A1.96 1.96 0 0 0 72.089.02z"/>
</symbol><symbol id="icon-four-dots" viewBox="0 0 2.91 2.91">
    
    <title>
        four-dots
    </title>
    <g id="Layer_2" data-name="Layer 2">
        <g id="Layer_1-2" data-name="Layer 1">
            <circle class="cls-1" cx=".31" cy="2.59" r=".31"/>
            <circle class="cls-1" cx=".31" cy=".31" r=".31"/>
            <circle class="cls-1" cx="2.59" cy="2.59" r=".31"/>
            <circle class="cls-1" cx="2.59" cy=".31" r=".31"/>
        </g>
    </g>
</symbol><symbol id="icon-gear" viewBox="0 0 4.72 4.72">
    
    <title>
        gear
    </title>
    <g id="Layer_2" data-name="Layer 2">
        <path class="cls-1" d="M3.93 1.54l.37-.37a.14.14 0 0 0 0-.17L3.76.42a.14.14 0 0 0-.21 0l-.36.37L3 .71h-.17V.14A.14.14 0 0 0 2.65 0h-.58a.14.14 0 0 0-.14.14v.52h-.17l-.21.12-.38-.36a.14.14 0 0 0-.17 0L.42 1a.15.15 0 0 0 0 .21l.37.37a1.46 1.46 0 0 0-.07.19v.17H.14a.14.14 0 0 0-.14.13v.58a.14.14 0 0 0 .14.14h.52v.16a1.07 1.07 0 0 0 .07.19l-.37.36a.15.15 0 0 0 0 .21L1 4.3a.14.14 0 0 0 .21 0l.37-.37.16.07h.17v.52a.14.14 0 0 0 .14.14h.58a.14.14 0 0 0 .14-.14v-.46L3 4l.19-.07.36.37a.14.14 0 0 0 .21 0l.54-.54a.15.15 0 0 0 0-.21l-.37-.36A1.07 1.07 0 0 0 4 3v-.17h.52a.14.14 0 0 0 .14-.14v-.62a.14.14 0 0 0-.14-.14h-.46a.75.75 0 0 0 0-.16H4a1.46 1.46 0 0 0-.07-.19zM2.09 3.81l-.26-.07a1.73 1.73 0 0 1-.24-.1h-.14L1.07 4l-.34-.35.36-.36v-.15A.87.87 0 0 1 1 2.89c0-.09 0-.17-.07-.27a.13.13 0 0 0-.13-.11H.29v-.29h.48a.14.14 0 0 0 .14-.12c0-.1 0-.19.08-.27a1 1 0 0 1 .09-.24.29.29 0 0 0 0-.09l-.35-.43.34-.34.35.35h.13A.64.64 0 0 1 1.83 1l.26-.09a.14.14 0 0 0 .13-.14V.29h.29v.48a.13.13 0 0 0 .11.14L2.9 1a1.09 1.09 0 0 1 .23.09h.1l.42-.36.35.34-.36.36v.13a1 1 0 0 1 .09.24c0 .09 0 .18.07.27a.14.14 0 0 0 .2.15h.48v.29H4a.13.13 0 0 0-.14.11 2.29 2.29 0 0 1-.08.28.92.92 0 0 1-.09.23v.13l.31.39-.35.35-.35-.35h-.14l-.24.1-.27.07a.14.14 0 0 0-.14.18v.48h-.29V4a.14.14 0 0 0-.13-.19zm1.28-1.45a1 1 0 0 0-.29-.72 1 1 0 0 0-.71-.29 1 1 0 0 0-.72.3 1 1 0 0 0-.29.71 1 1 0 0 0 .3.72 1 1 0 0 0 .71.29 1 1 0 0 0 1-1zm-.5-.51a.71.71 0 0 1 .21.51.72.72 0 0 1-.72.72.74.74 0 0 1-.51-.2.69.69 0 0 1-.21-.51.71.71 0 0 1 .21-.51.69.69 0 0 1 .51-.21.71.71 0 0 1 .51.21z" id="Layer_1-2" data-name="Layer 1"/>
    </g>
</symbol><symbol id="icon-hammer" viewBox="0 0 5 5">
    
    <title>
        hammer
    </title>
    <g id="Layer_2" data-name="Layer 2">
        <path class="cls-1" d="M4.65 5L5 4.65a.17.17 0 0 0 0-.21L3.8 3.28a.17.17 0 0 0-.21 0v.05l-.8-.8.45-.45a.22.22 0 0 0 .16 0A.27.27 0 0 0 3.6 2l.22-.22a.27.27 0 0 0 0-.4L2.42.08A.27.27 0 0 0 2.23 0 .27.27 0 0 0 2 .08l-.2.23a.27.27 0 0 0-.08.19.25.25 0 0 0 .05.15L.67 1.77a.33.33 0 0 0-.16-.05.27.27 0 0 0-.19.08L.08 2a.28.28 0 0 0-.08.2.3.3 0 0 0 .08.17l1.35 1.4a.27.27 0 0 0 .4 0l.22-.22a.27.27 0 0 0 .08-.2.22.22 0 0 0 0-.16l.46-.46.8.8v.06a.13.13 0 0 0 0 .2L4.45 5a.15.15 0 0 0 .2 0zM.87 2l1 1L3 1.89l-1-1zm.91 1.3L.58 2.07.51 2l-.23.23 1.35 1.34.22-.22-.06-.07zm.3-2.72l1.2 1.2.07.07.22-.22L2.23.28 2 .5l.07.07zm2.58 4l-.11.12-1-1 .12-.11z" id="Layer_1-2" data-name="Layer 1"/>
    </g>
</symbol><symbol id="icon-help" viewBox="0 0 6.29 7.75">
    
    <title>
        help
    </title>
    <g id="Layer_2" data-name="Layer 2">
        <path class="cls-1" d="M3.14 7h-.23a.23.23 0 1 0 0 .45h.47a.22.22 0 0 0 .22-.22.22.22 0 0 0-.22-.23zm3.15-4.35V5a2.36 2.36 0 0 1-2.45 2.39.47.47 0 0 1-.46.36h-.47a.49.49 0 0 1 0-1h.47a.48.48 0 0 1 .46.35A2.11 2.11 0 0 0 6 5.12a.75.75 0 0 1-.48.18H5a.31.31 0 0 1-.33-.3V3A.31.31 0 0 1 5 2.64h.57a.75.75 0 0 1 .43.18v-.17A2.14 2.14 0 0 0 4.11.52a.38.38 0 0 1-.33.21H2.51a.37.37 0 0 1-.33-.21A2.13 2.13 0 0 0 .26 2.65v.17a.75.75 0 0 1 .48-.18h.57a.31.31 0 0 1 .31.36v2a.31.31 0 0 1-.31.31H.74A.74.74 0 0 1 0 4.56V2.65A2.4 2.4 0 0 1 2.16.26.36.36 0 0 1 2.51 0h1.27a.38.38 0 0 1 .35.26 2.4 2.4 0 0 1 2.16 2.39zM6 4.56V3.38a.49.49 0 0 0-.48-.48h-.23V5h.26A.49.49 0 0 0 6 4.56zM5 5V2.9a.05.05 0 0 0-.07.1v2A.05.05 0 0 0 5 5zM3.88.37a.1.1 0 0 0-.1-.11H2.51a.11.11 0 0 0-.11.11.11.11 0 0 0 .11.1h1.27a.1.1 0 0 0 .1-.1zM1.36 5V3a.05.05 0 0 0-.05-.05h-.05V5h.05a.05.05 0 0 0 .05 0zM1 5V2.9H.74a.48.48 0 0 0-.48.48v1.18A.48.48 0 0 0 .74 5z" id="Layer_1-2" data-name="Layer 1"/>
    </g>
</symbol><symbol id="icon-inst" viewBox="0 0 97.395 97.395">
    <path d="M12.501 0h72.393c6.875 0 12.5 5.09 12.5 12.5v72.395c0 7.41-5.625 12.5-12.5 12.5H12.501C5.624 97.395 0 92.305 0 84.895V12.5C0 5.09 5.624 0 12.501 0zm58.447 10.821a4.395 4.395 0 0 0-4.383 4.385v10.495a4.396 4.396 0 0 0 4.383 4.385h11.008a4.398 4.398 0 0 0 4.385-4.385V15.206a4.397 4.397 0 0 0-4.385-4.385H70.948zm15.439 30.367h-8.572a28.486 28.486 0 0 1 1.25 8.355c0 16.2-13.556 29.332-30.275 29.332-16.718 0-30.272-13.132-30.272-29.332 0-2.904.438-5.708 1.25-8.355h-8.945v41.141a3.884 3.884 0 0 0 3.872 3.872h67.822a3.883 3.883 0 0 0 3.872-3.872V41.188h-.002zM48.789 29.533c-10.802 0-19.56 8.485-19.56 18.953s8.758 18.953 19.56 18.953c10.803 0 19.562-8.485 19.562-18.953s-8.758-18.953-19.562-18.953z"/>
</symbol><symbol id="icon-list-sm" viewBox="0 0 0.66 2.91">
    
    <title>
        list-sm
    </title>
    <g id="Layer_2" data-name="Layer 2">
        <path class="cls-1" d="M18.11.28A.15.15 0 0 1 18 .14a.15.15 0 0 1 .11-.14h.37a.15.15 0 0 1 .15.14.15.15 0 0 1-.15.14zm0 2.63a.15.15 0 1 1 0-.29h.37a.15.15 0 1 1 0 .29zm0-1.32a.14.14 0 1 1 0-.28h.37a.14.14 0 1 1 0 .28z" transform="translate(-17.96)" id="Layer_1-2" data-name="Layer 1"/>
    </g>
</symbol><symbol id="icon-list" viewBox="0 0 3.3 2.91">
    
    <title>
        list
    </title>
    <g id="Layer_2" data-name="Layer 2">
        <path class="cls-1" d="M.14.28A.14.14 0 0 1 0 .14.14.14 0 0 1 .14 0h3a.14.14 0 0 1 .16.14.14.14 0 0 1-.14.14zm0 2.63A.15.15 0 0 1 0 2.76a.14.14 0 0 1 .14-.14h3a.14.14 0 0 1 .14.14.15.15 0 0 1-.14.15zm0-1.32a.14.14 0 0 1 0-.28h3a.14.14 0 0 1 0 .28z" id="Layer_1-2" data-name="Layer 1"/>
    </g>
</symbol><symbol id="icon-location" viewBox="0 0 4.25 6.33">
    
    <title>
        location
    </title>
    <g id="Layer_2" data-name="Layer 2">
        <path class="cls-1" d="M2.13 6c.25-.4.66-1.07 1-1.76A6.1 6.1 0 0 0 4 2.13a1.83 1.83 0 0 0-.14-.71 1.86 1.86 0 0 0-.4-.6 1.91 1.91 0 0 0-.6-.4 1.82 1.82 0 0 0-.7-.14 1.87 1.87 0 0 0-.71.14 2 2 0 0 0-.6.4 2 2 0 0 0-.4.6 1.83 1.83 0 0 0-.14.71 6.1 6.1 0 0 0 .81 2.1c.34.69.75 1.36 1.01 1.77zm1-3.86A.94.94 0 0 1 3 2.5a.77.77 0 0 1-.22.31.87.87 0 0 1-.28.19.94.94 0 0 1-.37.07A1 1 0 0 1 1.75 3a.84.84 0 0 1-.31-.22 1.16 1.16 0 0 1-.22-.31 1.16 1.16 0 0 1-.07-.37 1.17 1.17 0 0 1 .07-.38 1.4 1.4 0 0 1 .22-.32 1.13 1.13 0 0 1 .31-.21 1.22 1.22 0 0 1 .38-.07 1.16 1.16 0 0 1 .37.07 1.2 1.2 0 0 1 .31.21 1 1 0 0 1 .19.35 1 1 0 0 1 .1.38zm-.33.26a.75.75 0 0 0 0-.26.76.76 0 0 0 0-.27.86.86 0 0 0-.15-.22.65.65 0 0 0-.23-.15.58.58 0 0 0-.26-.06.6.6 0 0 0-.27.06.54.54 0 0 0-.22.15.54.54 0 0 0-.15.22.6.6 0 0 0-.06.27.58.58 0 0 0 .06.26.54.54 0 0 0 .15.22.54.54 0 0 0 .22.15.6.6 0 0 0 .27.06.58.58 0 0 0 .26-.06.54.54 0 0 0 .22-.15.69.69 0 0 0 .13-.23zm.64 2C3 5.2 2.47 6 2.25 6.33H2A32.4 32.4 0 0 1 .84 4.36 6.14 6.14 0 0 1 0 2.13a2.22 2.22 0 0 1 .16-.82A2.31 2.31 0 0 1 .62.62a2.31 2.31 0 0 1 .69-.46A2.22 2.22 0 0 1 2.13 0a2.21 2.21 0 0 1 .81.16 2.31 2.31 0 0 1 .69.46 2.31 2.31 0 0 1 .46.69 2.22 2.22 0 0 1 .16.82 6.14 6.14 0 0 1-.84 2.23z" id="Layer_1-2" data-name="Layer 1"/>
    </g>
</symbol><symbol id="icon-lock" viewBox="0 0 3.49 4.86">
    
    <title>
        lock
    </title>
    <g id="Layer_2" data-name="Layer 2">
        <path class="cls-1" d="M2.93 1.7h.41a.15.15 0 0 1 .15.14v2.87a.15.15 0 0 1-.15.15H.14A.15.15 0 0 1 0 4.71V1.84a.14.14 0 0 1 .14-.14h.42v-.52A1.18 1.18 0 0 1 .91.35 1.14 1.14 0 0 1 1.74 0a1.15 1.15 0 0 1 .84.35 1.18 1.18 0 0 1 .35.83zm-2.08 0h1.78v-.52a.88.88 0 0 0-.26-.63.86.86 0 0 0-.63-.26.89.89 0 0 0-.63.26.92.92 0 0 0-.26.63zM3.2 2H.29v2.57H3.2zM1.89 3.31v.46a.14.14 0 0 1-.15.15.14.14 0 0 1-.14-.15v-.46a.23.23 0 0 1-.07-.17.24.24 0 0 1 .07-.18.28.28 0 0 1 .16-.07.25.25 0 0 1 .16.11.27.27 0 0 1 .08.12.23.23 0 0 1-.07.17z" id="Layer_1-2" data-name="Layer 1"/>
    </g>
</symbol><symbol id="icon-logo-blue" viewBox="0 0 47.3 7.62">
    
    <title>
        logo-blue
    </title>
    <g id="Layer_2" data-name="Layer 2">
        <g id="Layer_1-2" data-name="Layer 1">
            <path class="cls-1" d="M23.82 2.42h23.47v5.2H23.82z"/>
            <path class="cls-2" d="M4 7.22a2.6 2.6 0 1 1-1.4-4.8v1.22A1.39 1.39 0 1 0 4 5h1.2v2.6H4zm17.84-2.8v1.21h2v2H25v-2h2V4.42h-2v-2h-1.18v2zM47.3 5h-1.21v2.6h1.21zm-5.2 0a2.59 2.59 0 0 1 2.6-2.59v1.23A1.38 1.38 0 0 0 43.31 5v2.6H42.1V5zM40 5a2.6 2.6 0 1 1-2.6-2.6v1.24A1.39 1.39 0 1 0 38.81 5zm-9.7-3.81h1.21V0h-1.19zm1.21 6.41h1.21V6.41h-1.19v-4h-2.42v1.23h1.21v2.77h-1.21v1.21h2.42zM19.75 5a2.6 2.6 0 1 0-2.6 2.6V6.41A1.39 1.39 0 1 1 18.54 5zm-7.27 0h-1.22V2.42h1.22zm-5.2 0a2.59 2.59 0 0 0 2.6 2.6V6.41A1.39 1.39 0 0 1 8.49 5V2.42H7.28V5z"/>
        </g>
    </g>
</symbol><symbol id="icon-loupe" viewBox="0 0 4.51 4.5">
    
    <title>
        loupe
    </title>
    <g id="Layer_2" data-name="Layer 2">
        <path class="cls-1" d="M2.6.68a1.32 1.32 0 0 0-1-.4 1.34 1.34 0 0 0-1 .4 1.32 1.32 0 0 0-.4 1 1.32 1.32 0 0 0 .4 1 1.34 1.34 0 0 0 1 .4 1.32 1.32 0 0 0 1-.4 1.32 1.32 0 0 0 .4-1 1.32 1.32 0 0 0-.4-1zm1.86 3.47l-.31.31a.13.13 0 0 1-.2 0L2.79 3.3a.15.15 0 0 1 0-.2v-.05l-.1-.15a1.64 1.64 0 1 1 .59-1.26 1.62 1.62 0 0 1-.39 1.06l.11.15.06-.06a.15.15 0 0 1 .2 0L4.46 4a.13.13 0 0 1 0 .15zm-.41 0l.12-.11-1-1-.11.11z" id="Layer_1-2" data-name="Layer 1"/>
    </g>
</symbol><symbol id="icon-mc" viewBox="0 0 6.43 3.99">
    
    <title>
        mc
    </title>
    <g id="Layer_2" data-name="Layer 2">
        <g id="Layer_1-2" data-name="Layer 1">
            <circle class="cls-1" cx="1.99" cy="1.99" r="1.99"/>
            <circle class="cls-2" cx="4.44" cy="1.99" r="1.99"/>
            <path class="cls-3" d="M3.21 3.57a2 2 0 0 1 0-3.15 2 2 0 0 1 0 3.15z"/>
        </g>
    </g>
</symbol><symbol id="icon-paint" viewBox="0 0 7.02 6.51">
    
    <title>
        paint
    </title>
    <g id="Layer_2" data-name="Layer 2">
        <path class="cls-1" d="M1.24 5.78a.46.46 0 0 0 .3.12.44.44 0 0 0 .32-.13.43.43 0 0 0 .14-.3.42.42 0 0 0-.12-.3.4.4 0 0 1-.13-.31.43.43 0 0 1 .13-.31.45.45 0 0 1 .31-.12.4.4 0 0 1 .3.11l1.22 1.24a1.49 1.49 0 0 0 2.07 0 3.21 3.21 0 0 0 0-4.54A3.23 3.23 0 0 0 3.51.29a3.19 3.19 0 0 0-2.27.94 3.23 3.23 0 0 0-.95 2.28 3.19 3.19 0 0 0 .95 2.27zm2.18-4.43a.61.61 0 0 1 .16.4.58.58 0 0 1-.17.41.6.6 0 0 1-.41.18.62.62 0 0 1-.41-.17.55.55 0 0 1-.16-.4.58.58 0 0 1 .17-.41.57.57 0 0 1 .4-.19.58.58 0 0 1 .42.17zm-.13.4a.32.32 0 0 0-.08-.2.32.32 0 0 0-.21-.09.32.32 0 0 0-.2.08.3.3 0 0 0-.09.21.3.3 0 0 0 .08.2.29.29 0 0 0 .4 0 .29.29 0 0 0 .1-.2zm1 3.73A.75.75 0 0 1 4 5a.7.7 0 0 1 .22-.52.75.75 0 0 1 1 0 .74.74 0 0 1 .2.51.73.73 0 0 1-.21.51.72.72 0 0 1-1 0zM4.31 5a.42.42 0 0 0 .12.3.46.46 0 0 0 .61 0 .43.43 0 0 0 .15-.3.47.47 0 0 0-.12-.31.43.43 0 0 0-.31-.13.42.42 0 0 0-.3.12.44.44 0 0 0-.15.32zm1.14-1.39a.15.15 0 0 0 .11 0 .14.14 0 0 0 .14-.14.15.15 0 0 0 0-.11.18.18 0 0 0-.1 0 .21.21 0 0 0-.11 0 .21.21 0 0 0 0 .11.18.18 0 0 0-.04.14zm-.2.21a.43.43 0 0 1 0-.62.45.45 0 0 1 .31-.12.43.43 0 0 1 .31.13.48.48 0 0 1 .13.3.48.48 0 0 1-.13.31.43.43 0 0 1-.31.18.42.42 0 0 1-.31-.18zM5 2.27a.26.26 0 0 0 0-.21.31.31 0 0 0 0-.2.32.32 0 0 0-.21-.08.32.32 0 0 0-.2.08.3.3 0 0 0-.08.2.26.26 0 0 0 .08.2.34.34 0 0 0 .21.08.26.26 0 0 0 .2-.07zm.21.2a.56.56 0 0 1-.4.17.55.55 0 0 1-.41-.18.55.55 0 0 1-.16-.4.56.56 0 0 1 .17-.41.57.57 0 0 1 .4-.16.54.54 0 0 1 .41.17.6.6 0 0 1 .15.4.59.59 0 0 1-.2.41zM1 6a3.5 3.5 0 0 1 0-5 3.5 3.5 0 0 1 5 0 3.5 3.5 0 0 1 0 5 1.74 1.74 0 0 1-2.48 0L2.28 4.76a.14.14 0 0 0-.09 0 .15.15 0 0 0-.11 0 .16.16 0 0 0 0 .21.71.71 0 0 1 0 1 .74.74 0 0 1-.52.22A.7.7 0 0 1 1 6z" id="Layer_1-2" data-name="Layer 1"/>
    </g>
</symbol><symbol id="icon-pen" viewBox="0 0 6.5 6.49">
    
    <title>
        pen
    </title>
    <g id="Layer_2" data-name="Layer 2">
        <path class="cls-1" d="M1.69 5.62l-.1-.1-.52.48a.15.15 0 0 1-.2 0l-.1-.1-.52.51a.14.14 0 0 1-.21 0 .15.15 0 0 1 0-.2l.52-.52-.1-.1a.14.14 0 0 1 0-.21L1 4.9l-.1-.1a.15.15 0 0 1 0-.21L3.76 1.7 5.09.37a.41.41 0 0 0-.19 0 .43.43 0 0 0-.31.13L2.94 2.11a.15.15 0 0 1-.21-.21L4.38.26A.71.71 0 0 1 4.9 0a.72.72 0 0 1 .4.12L5.42 0a.17.17 0 0 1 .21 0l.82.83a.14.14 0 0 1 0 .21L4.8 2.73l-2.9 2.9a.15.15 0 0 1-.2 0zm-.3-.3l-.21-.21-.41.41.09.1.09.1zM4.07 1.8l.62.62L6.14 1 5.52.35l-.09.1zm.42.83L3.87 2 1.18 4.69l.1.1.42.41.1.1z" id="Layer_1-2" data-name="Layer 1"/>
    </g>
</symbol><symbol id="icon-ring" viewBox="0 0 3.74 5.47">
    
    <title>
        ring
    </title>
    <g id="Layer_2" data-name="Layer 2">
        <path class="cls-1" d="M.44 3h-.3a.15.15 0 0 0-.14.12A2.06 2.06 0 0 0 .17 4a.59.59 0 0 0 .55.35H3a.64.64 0 0 0 .64-.53 2.39 2.39 0 0 0 .08-.7A.15.15 0 0 0 3.6 3h-.3v-.71a1.31 1.31 0 0 0-.43-.93A1.53 1.53 0 0 0 2 1V.81a.42.42 0 0 0 .17-.1.37.37 0 0 0 .14-.29.39.39 0 0 0-.14-.3.42.42 0 0 0-.3-.12.47.47 0 0 0-.31.12.42.42 0 0 0-.13.3.4.4 0 0 0 .12.28.46.46 0 0 0 .16.1V1a1.5 1.5 0 0 0-.83.37 1.29 1.29 0 0 0-.43.92zM3 3H.73v-.71a1 1 0 0 1 .33-.72 1.2 1.2 0 0 1 .81-.3 1.2 1.2 0 0 1 .81.3 1 1 0 0 1 .32.72zm.44.32a1.68 1.68 0 0 1-.06.45c-.06.18-.17.33-.37.33H.72a.35.35 0 0 1-.3-.21 1.36 1.36 0 0 1-.13-.57h3.16zM2 .51a.21.21 0 0 1-.11 0 .21.21 0 0 1-.11 0 .12.12 0 0 1 0-.08.13.13 0 0 1 0-.09.19.19 0 0 1 .12 0A.15.15 0 0 1 2 .33a.1.1 0 0 1 0 .09.12.12 0 0 1 0 .09zm.25 4.35a.33.33 0 0 1-.1.23.41.41 0 0 1-.26.09.39.39 0 0 1-.26-.09.31.31 0 0 1-.09-.22.14.14 0 0 0-.14-.14.15.15 0 0 0-.15.14.57.57 0 0 0 .19.42.68.68 0 0 0 .9 0 .61.61 0 0 0 .19-.44.14.14 0 0 0-.28 0z" id="Layer_1-2" data-name="Layer 1"/>
    </g>
</symbol><symbol id="icon-sand-clock" viewBox="0 0 1.68 3.54">
    
    <title>
        sand-clock
    </title>
    <g id="Layer_2" data-name="Layer 2">
        <path class="cls-1" d="M.28 3.26h1.11V3H.28zm1.11-.58v-.36L1 1.91H.69l-.41.41v.36zm.29.14v.58a.14.14 0 0 1-.14.14H.14A.14.14 0 0 1 0 3.4V2.26a.14.14 0 0 1 0-.1l.39-.39-.34-.39H0V.14A.15.15 0 0 1 .14 0h1.4a.14.14 0 0 1 .14.14v1.13h-.05l-.38.39.38.39a.14.14 0 0 1 .05.1zM.28 1.14h1.11V.28H.28zm.92.28H.48l.21.21H1z" id="Layer_1-2" data-name="Layer 1"/>
    </g>
</symbol><symbol id="icon-shovel" viewBox="0 0 7.13 6.85">
    
    <title>
        shovel
    </title>
    <g id="Layer_2" data-name="Layer 2">
        <path class="cls-1" d="M.09 5.37l.88-3A.9.9 0 0 1 1.21 2a.71.71 0 0 1 .3-.18.61.61 0 0 1 .38 0 1 1 0 0 1 .45.29l.89.94.58-.55-.23-.24.1-.1.46-.43.1-.1L5.77.2a.79.79 0 0 1 .56-.2.8.8 0 0 1 .57.26.86.86 0 0 1 .2.56.88.88 0 0 1-.24.56c-.52.52-1.09 1-1.63 1.54l-.56.53-.23-.24-.58.54.89.94a1 1 0 0 1 .27.46.64.64 0 0 1 0 .39.7.7 0 0 1-.19.28.92.92 0 0 1-.4.23l-3 .71a1.61 1.61 0 0 1-.84 0 .73.73 0 0 1-.36-.22.71.71 0 0 1-.23-.33 1.67 1.67 0 0 1 .09-.84zM3 3.27l-.88-.94a.82.82 0 0 0-.33-.22.41.41 0 0 0-.22 0 .42.42 0 0 0-.18.11.54.54 0 0 0-.17.27l-.88 3a1.44 1.44 0 0 0-.06.69.66.66 0 0 0 .13.25.57.57 0 0 0 .24.14 1.36 1.36 0 0 0 .69 0l3-.72a.56.56 0 0 0 .27-.15.46.46 0 0 0 .13-.18.41.41 0 0 0 0-.22.87.87 0 0 0-.21-.34L3.69 4l-.87.82a.47.47 0 0 1-.35.14.48.48 0 0 1-.33-.15.5.5 0 0 1-.14-.38.46.46 0 0 1 .15-.34zm1-.54L2.34 4.3a.19.19 0 0 0 0 .28.24.24 0 0 0 .14 0 .18.18 0 0 0 .14 0L4.28 3zm.54-1l.74.78 1.4-1.33a.55.55 0 0 0 .16-.35.49.49 0 0 0-.13-.36.53.53 0 0 0-.39-.19.57.57 0 0 0-.38.15zM4.33 2L4 2.29l.73.78.36-.34z" id="Layer_1-2" data-name="Layer 1"/>
    </g>
</symbol><symbol id="icon-star" viewBox="0 0 19.481 19.481">
    <path d="M10.201.758l2.478 5.865 6.344.545a.5.5 0 0 1 .285.876l-4.812 4.169 1.442 6.202a.5.5 0 0 1-.745.541l-5.452-3.288-5.452 3.288a.5.5 0 0 1-.745-.541l1.442-6.202-4.813-4.17a.5.5 0 0 1 .285-.876l6.344-.545L9.28.758a.5.5 0 0 1 .921 0z"/>
</symbol><symbol id="icon-target" viewBox="0 0 2.82 2.82">
    
    <title>
        target
    </title>
    <g id="Layer_2" data-name="Layer 2">
        <path class="cls-1" d="M2.07 2.68a.15.15 0 0 1-.15.14.14.14 0 0 1-.14-.14v-.76a.15.15 0 0 1 .14-.14h.76a.14.14 0 0 1 .14.14.15.15 0 0 1-.14.15h-.61zM.75.14a.14.14 0 0 1 .25 0v.75A.14.14 0 0 1 .89 1H.14a.14.14 0 0 1 0-.28h.61zM.14 2.07A.15.15 0 0 1 0 1.92a.14.14 0 0 1 .14-.14h.75a.14.14 0 0 1 .11.14v.76a.14.14 0 0 1-.28 0v-.61zM1.78.14A.14.14 0 0 1 1.92 0a.15.15 0 0 1 .15.14v.61h.61a.14.14 0 0 1 0 .28h-.76a.14.14 0 0 1-.14-.14z" id="Layer_1-2" data-name="Layer 1"/>
    </g>
</symbol><symbol id="icon-user" viewBox="0 0 3.94 5.16">
    
    <title>
        user
    </title>
    <g id="Layer_2" data-name="Layer 2">
        <path class="cls-1" d="M1.48 3.29v.59L.33 4.3A2.54 2.54 0 0 0 2 4.9a2.49 2.49 0 0 0 1.64-.61l-1.12-.41v-.62A1.15 1.15 0 0 1 2 3.4a1.17 1.17 0 0 1-.52-.11zM0 4.14l1.22-.45v-.55A1.6 1.6 0 0 1 1 2.89 1.85 1.85 0 0 1 .53 1.7 1.81 1.81 0 0 1 1 .51 1.31 1.31 0 0 1 2 0a1.31 1.31 0 0 1 1 .51 1.81 1.81 0 0 1 .4 1.19A1.85 1.85 0 0 1 3 2.89a1.39 1.39 0 0 1-.21.21v.59l1.16.45v.2a2.78 2.78 0 0 1-3.95 0zM3.14 1.7a.91.91 0 0 1-.62-.08 1.11 1.11 0 0 1-.36-.33 1 1 0 0 1-.33.24 1.37 1.37 0 0 1-.65.17 1 1 0 0 1-.29 0H.8a1.58 1.58 0 0 0 .36 1 1 1 0 0 0 .84.43 1 1 0 0 0 .82-.41 1.57 1.57 0 0 0 .32-1.02zM.82 1.37h.13a.91.91 0 0 0 .23 0 1.1 1.1 0 0 0 .53-.14.76.76 0 0 0 .35-.23l.1-.21.12.21a1 1 0 0 0 .36.39.69.69 0 0 0 .48.05 1.54 1.54 0 0 0-.33-.77A1.08 1.08 0 0 0 2 .26a1.08 1.08 0 0 0-.82.41 1.62 1.62 0 0 0-.36.7z" id="Layer_1-2" data-name="Layer 1"/>
    </g>
</symbol><symbol id="icon-view" viewBox="0 0 3.39 3.38">
    
    <title>
        view
    </title>
    <g id="Layer_2" data-name="Layer 2">
        <path class="cls-1" d="M.28.89A.14.14 0 0 1 .14 1 .14.14 0 0 1 0 .89V.14A.14.14 0 0 1 .14 0h.75A.14.14 0 0 1 1 .14a.14.14 0 0 1-.11.14H.28zM.89 3.1a.14.14 0 0 1 0 .28H.14A.14.14 0 0 1 0 3.24v-.75a.15.15 0 0 1 .14-.14.14.14 0 0 1 .14.14v.61zM3.39.89a.14.14 0 0 1-.14.11.15.15 0 0 1-.15-.11V.28h-.61a.14.14 0 0 1-.14-.14.14.14 0 0 1 .14-.14h.76a.14.14 0 0 1 .14.14zm-.29 1.6a.15.15 0 0 1 .15-.14.15.15 0 0 1 .14.14v.75a.14.14 0 0 1-.14.14h-.76a.14.14 0 1 1 0-.28h.61z" id="Layer_1-2" data-name="Layer 1"/>
    </g>
</symbol><symbol id="icon-visa" viewBox="0 0 9.63 2.97">
    
    <title>
        visa
    </title>
    <g id="Layer_2" data-name="Layer 2">
        <g id="Layer_1-2" data-name="Layer 1">
            <path class="cls-1" d="M8.9 2.92l-.09-.43h-1l-.16.43h-.83L8 .29a.38.38 0 0 1 .39-.24H9l.64 2.87zM8.44.83c0 .11-.1.28-.1.27L8 1.9h.65l-.15-.83z"/>
            <path class="cls-1" d="M5.51 3a2.59 2.59 0 0 1-.87-.16l.11-.64h.1a1.59 1.59 0 0 0 .73.15c.23 0 .47-.08.47-.28s-.1-.21-.4-.35S5 1.36 5 1s.51-1 1.28-1A2 2 0 0 1 7 .12l-.12.62h-.07A1.51 1.51 0 0 0 6.22.6c-.3 0-.44.13-.44.25s.16.22.44.35c.45.21.66.46.65.78 0 .6-.54 1.02-1.36 1.02z"/>
            <path class="cls-1" d="M4.15 2.92h-.78L3.85.05h.79l-.49 2.87z"/>
            <path class="cls-1" d="M1.48 2.92L.72.2A3.1 3.1 0 0 1 1.8 1.39l.14.61.77-2h.83L2.3 2.92z"/>
            <path class="cls-2" d="M0 0h1.22a.3.3 0 0 1 .34.23l.27 1.27A2.5 2.5 0 0 0 0 .08z"/>
        </g>
    </g>
</symbol><symbol id="icon-vk" viewBox="0 0 548.358 548.358">
    <path d="M545.451 400.298c-.664-1.431-1.283-2.618-1.858-3.569-9.514-17.135-27.695-38.167-54.532-63.102l-.567-.571-.284-.28-.287-.287h-.288c-12.18-11.611-19.893-19.418-23.123-23.415-5.91-7.614-7.234-15.321-4.004-23.13 2.282-5.9 10.854-18.36 25.696-37.397 7.807-10.089 13.99-18.175 18.556-24.267 32.931-43.78 47.208-71.756 42.828-83.939l-1.701-2.847c-1.143-1.714-4.093-3.282-8.846-4.712-4.764-1.427-10.853-1.663-18.278-.712l-82.224.568c-1.332-.472-3.234-.428-5.712.144l-3.713.859-1.431.715-1.136.859c-.952.568-1.999 1.567-3.142 2.995-1.137 1.423-2.088 3.093-2.848 4.996-8.952 23.031-19.13 44.444-30.553 64.238-7.043 11.803-13.511 22.032-19.418 30.693-5.899 8.658-10.848 15.037-14.842 19.126-4 4.093-7.61 7.372-10.852 9.849-3.237 2.478-5.708 3.525-7.419 3.142-1.715-.383-3.33-.763-4.859-1.143-2.663-1.714-4.805-4.045-6.42-6.995-1.622-2.95-2.714-6.663-3.285-11.136-.568-4.476-.904-8.326-1-11.563-.089-3.233-.048-7.806.145-13.706.198-5.903.287-9.897.287-11.991 0-7.234.141-15.085.424-23.555.288-8.47.521-15.181.716-20.125.194-4.949.284-10.185.284-15.705s-.336-9.849-1-12.991a44.442 44.442 0 0 0-2.99-9.137c-1.335-2.95-3.289-5.232-5.853-6.852-2.569-1.618-5.763-2.902-9.564-3.856-10.089-2.283-22.936-3.518-38.547-3.71-35.401-.38-58.148 1.906-68.236 6.855-3.997 2.091-7.614 4.948-10.848 8.562-3.427 4.189-3.905 6.475-1.431 6.851 11.422 1.711 19.508 5.804 24.267 12.275l1.715 3.429c1.334 2.474 2.666 6.854 3.999 13.134 1.331 6.28 2.19 13.227 2.568 20.837.95 13.897.95 25.793 0 35.689-.953 9.9-1.853 17.607-2.712 23.127-.859 5.52-2.143 9.993-3.855 13.418-1.715 3.426-2.856 5.52-3.428 6.28-.571.76-1.047 1.239-1.425 1.427a21.387 21.387 0 0 1-7.71 1.431c-2.667 0-5.901-1.334-9.707-4-3.805-2.666-7.754-6.328-11.847-10.992-4.093-4.665-8.709-11.184-13.85-19.558-5.137-8.374-10.467-18.271-15.987-29.691l-4.567-8.282c-2.855-5.328-6.755-13.086-11.704-23.267-4.952-10.185-9.329-20.037-13.134-29.554-1.521-3.997-3.806-7.04-6.851-9.134l-1.429-.859c-.95-.76-2.475-1.567-4.567-2.427a30.301 30.301 0 0 0-6.567-1.854l-78.229.568c-7.994 0-13.418 1.811-16.274 5.428l-1.143 1.711c-.571.953-.859 2.475-.859 4.57 0 2.094.571 4.664 1.714 7.707 11.42 26.84 23.839 52.725 37.257 77.659 13.418 24.934 25.078 45.019 34.973 60.237 9.897 15.229 19.985 29.602 30.264 43.112 10.279 13.515 17.083 22.176 20.412 25.981 3.333 3.812 5.951 6.662 7.854 8.565l7.139 6.851c4.568 4.569 11.276 10.041 20.127 16.416 8.853 6.379 18.654 12.659 29.408 18.85 10.756 6.181 23.269 11.225 37.546 15.126 14.275 3.905 28.169 5.472 41.684 4.716h32.834c6.659-.575 11.704-2.669 15.133-6.283l1.136-1.431c.764-1.136 1.479-2.901 2.139-5.276.668-2.379 1-5 1-7.851-.195-8.183.428-15.558 1.852-22.124 1.423-6.564 3.045-11.513 4.859-14.846 1.813-3.33 3.859-6.14 6.136-8.418 2.282-2.283 3.908-3.666 4.862-4.142.948-.479 1.705-.804 2.276-.999 4.568-1.522 9.944-.048 16.136 4.429 6.187 4.473 11.99 9.996 17.418 16.56 5.425 6.57 11.943 13.941 19.555 22.124 7.617 8.186 14.277 14.271 19.985 18.274l5.708 3.426c3.812 2.286 8.761 4.38 14.853 6.283 6.081 1.902 11.409 2.378 15.984 1.427l73.087-1.14c7.229 0 12.854-1.197 16.844-3.572 3.998-2.379 6.373-5 7.139-7.851.764-2.854.805-6.092.145-9.712-.677-3.611-1.344-6.136-2.008-7.563z"/>
</symbol></svg>