<svg xmlns="http://www.w3.org/2000/svg" viewBox="0 0 9.63 2.97">
    <defs>
        <style>.cls-1{fill:#1a3680;}.cls-2{fill:#ed9f01;}</style>
    </defs>
    <g id="Layer_2" data-name="Layer 2">
        <g id="Layer_1-2" data-name="Layer 1">
            <path class="cls-1"
                  d="M8.9,2.92l-.09-.43h-1l-.16.43H6.82L8,.29A.38.38,0,0,1,8.39.05H9l.64,2.87ZM8.44.83c0,.11-.1.28-.1.27L8,1.9h.65L8.5,1.07Z"/>
            <path class="cls-1"
                  d="M5.51,3a2.59,2.59,0,0,1-.87-.16l.11-.64.1,0a1.59,1.59,0,0,0,.73.15c.23,0,.47-.08.47-.28s-.1-.21-.4-.35S5,1.36,5,1,5.51,0,6.28,0A2,2,0,0,1,7,.12L6.88.74l-.07,0A1.51,1.51,0,0,0,6.22.6c-.3,0-.44.13-.44.25s.16.22.44.35c.45.21.66.46.65.78C6.87,2.58,6.33,3,5.51,3Z"/>
            <polygon class="cls-1" points="4.15 2.92 3.37 2.92 3.85 0.05 4.64 0.05 4.15 2.92"/>
            <path class="cls-1" d="M1.48,2.92.72.2A3.1,3.1,0,0,1,1.8,1.39L1.94,2l.77-2h.83L2.3,2.92Z"/>
            <path class="cls-2" d="M0,0H1.22a.3.3,0,0,1,.34.23l.27,1.27A2.5,2.5,0,0,0,0,.08Z"/>
        </g>
    </g>
</svg>
